<?xml version="1.0" encoding="utf-8" ?><svg xmlns="http://www.w3.org/2000/svg" xmlns:xlink="http://www.w3.org/1999/xlink" width="1024" height="1024" viewBox="0 0 1024 1024"><path fill="#B01919" d="M0 0L486.577 0L538.422 0L1024 0L1024 487.254L1024 537.374L1024 1024L539.467 1024L484.054 1024L0 1024L0 533.935L0 490.248L0 0Z"/><path fill="white" d="M0 0L486.577 0C477.296 1.78346 464.374 1.79028 454.591 2.81616C435.098 4.98115 415.741 8.22691 396.608 12.5385C302.448 33.7745 216.347 81.5507 148.501 150.209C71.9475 226.827 24.3705 321.799 6.75699 428.486C4.64032 441.244 3.03791 454.081 1.95367 466.968C1.38065 473.627 1.10478 484.281 0 490.248L0 0Z"/><path fill="white" d="M0 533.935C1.81812 543.366 1.5814 555.715 2.65024 565.64C5.22095 587.679 8.88269 609.577 13.622 631.253C20.5106 660.451 29.9827 688.978 41.9261 716.497C104.334 860.799 229.329 968.687 381.813 1008.17C397.98 1012.36 415.514 1015.54 432.01 1018.4C442.129 1020.21 452.331 1021.51 462.579 1022.31C468.468 1022.75 478.693 1022.92 484.054 1024L0 1024L0 533.935Z"/><path fill="white" d="M538.422 0L1024 0L1024 487.254C1022.85 481.314 1022.47 469.358 1021.89 462.732C1020.8 451.238 1019.29 439.788 1017.38 428.402C1006.08 357.353 979.84 289.51 940.386 229.353C868.288 120.177 757.163 42.7096 629.787 12.8293C605.811 7.12893 580.433 3.68355 555.889 1.64391C550.169 1.16865 543.995 1.28574 538.422 0Z"/><path fill="white" d="M1024 537.374L1024 1024L539.467 1024C541.873 1023.5 544.725 1023.2 547.168 1023.09C567.191 1022.26 586.668 1019.39 606.409 1015.91C681.914 1002.37 753.304 971.684 815.087 926.217C913.001 854.744 982.203 750.683 1010.25 632.747C1014.94 612.177 1018.53 591.37 1021 570.415C1022.07 560.795 1022.44 546.618 1023.9 537.91L1024 537.374Z"/><path fill="white" d="M255.82 208.177C275.418 205.169 295.841 222.168 304.757 238.081C310.509 248.346 315.794 258.915 321.235 269.352L351.348 327.125L371.856 366.754C378.313 379.31 387.539 392.632 384.564 407.131C380.366 427.594 359.164 430.253 354.501 451.437C348.152 480.278 370.377 502.216 387.66 522.276C419.749 559.67 454.324 594.856 491.15 627.596C500.244 635.738 519.747 653.033 529.72 659.57C535.923 663.664 542.8 666.629 550.035 668.329C563.934 671.609 576.982 668.494 586.596 657.623C592.468 650.984 595.433 645.642 603.209 640.853C610.188 636.4 621.165 635.473 629.124 638.114C643.424 642.857 658.643 652.406 671.884 659.764L711.218 681.201L747.891 701.132C770.088 713.178 793.983 726.123 802.131 752.159C806.229 765.256 802.398 781.083 793.945 791.681C787.299 800.013 778.652 805.068 769.574 810.361C661.282 871.209 550.503 814.771 462.075 746.993C361.275 669.731 273.065 575.113 214.653 461.484C199.811 432.612 187.529 404.909 183.081 372.549C177.056 331.573 184.609 289.751 204.585 253.47C216.591 231.174 228.679 211.718 255.82 208.177Z"/><path fill="white" d="M677.163 588.706C687.244 587.884 706.056 590.941 715.444 594.917C741.607 605.998 769.845 620.87 792.712 637.812C813.879 653.495 841.352 673.876 845.429 701.441C848.214 720.273 842.477 736.599 831.472 751.669C830.87 741.999 829.351 736.825 825.002 728.24C817.775 714.376 803.267 698.777 790.761 689.384C782.204 682.956 766.089 675.121 756.15 669.79L706.433 642.61C694.384 636.095 682.501 629.238 670.432 622.749C656.546 615.283 647.162 611.073 631.292 613.105C645.98 597.471 654.798 590.653 677.163 588.706Z"/><path fill="white" d="M303.995 168.202C305.458 168.014 307.02 167.987 308.494 167.97C326.886 167.758 340.614 174.926 353.432 187.579C386.027 219.756 431.488 293.048 431.559 339.793C431.592 361.982 423.405 374.347 408.354 389.454L408.775 380.638C409.072 375.006 408.128 369.378 406.009 364.151C403.009 356.584 396.817 345.639 392.866 338.15L371.564 297.486L348.156 252.403C339.16 234.965 332.132 219.066 318.072 204.955C303.944 190.776 291.853 183.034 272.333 178.733C284.793 172.584 290.018 169.661 303.995 168.202Z"/></svg>