<?xml version="1.0" encoding="utf-8" ?><svg xmlns="http://www.w3.org/2000/svg" xmlns:xlink="http://www.w3.org/1999/xlink" width="1024" height="1024" viewBox="0 0 1024 1024"><path fill="#B01919" d="M0 0L493.66 0L529.954 0L1024 0L1024 491.675L1024 531.735L1024 1024L538.777 1024L487.765 1024L0 1024L0 535.909L0 487.744L0 0Z"/><path fill="white" d="M553.157 237.663C558.194 237.131 591.664 245.194 599.412 246.238C609.583 248.113 619.925 249.534 630.046 251.646C637.78 253.259 634.332 261.509 632.443 266.191C630.059 272.1 627.711 277.728 625.273 283.47C625.818 289.21 627.044 296.308 627.836 302.194C629.519 315.344 631.413 328.466 633.517 341.555L638.289 339.485C638.379 327.552 638.185 315.072 638.861 303.231C639.206 297.184 671.659 298.064 672.3 302.411C673.902 313.27 674.318 327.592 672.394 338.435C671.837 341.579 659.874 345.543 656.662 346.812C649.368 349.663 642.099 352.579 634.857 355.557C636.909 369.133 635.969 374.653 633.996 388.124C632.684 397.255 631.309 406.376 629.872 415.488L646.762 415.49C657.467 415.494 667.228 414.625 675.777 422.788C685.629 432.196 683.549 449.002 683.39 462C695.125 461.62 701.556 461.066 712.98 464.564C731.473 470.225 750.499 474.446 769.085 479.857C777.343 482.261 776.562 483.9 776.85 492.027C777.266 495.593 776.355 501.263 776.952 504.632C780.621 525.326 778.703 546.022 779.489 567.038C791.422 586.093 807.118 608.358 819.918 627.051L877.205 711.303C888.958 728.531 901.782 746.574 913.09 763.964C906.349 763.991 891.305 762.412 886.879 763.311C872.405 766.251 864.827 772.573 848.853 772.696C836.076 773.48 825.849 767.919 814.054 764.501C804.317 761.679 787.246 761.49 777.424 764.62C764.509 768.734 757.061 772.295 743.138 772.742C723.913 773.358 710.34 761.303 691.387 762.18C669.77 762.268 660.477 772.258 640.303 772.578C619.862 772.901 610.056 762.054 588.231 762.012C565.641 761.968 557.277 772.412 535.923 772.523C517.791 772.617 506.704 762.245 487.882 762.075C468.285 761.898 458.65 772.076 439.749 772.144C422.38 772.207 411.516 762.034 394.004 762.34C387.158 762.46 379.818 762.34 373.132 764.415C359.661 768.595 353.874 772.271 339.444 772.634C319.938 773.126 310.599 763.172 291.759 762.088C270.945 760.891 260.809 771.952 240.345 772.595C225.297 774.35 212.636 765.012 198.801 762.884C190.765 761.649 178.347 763.851 169.065 763.661C174.68 754.963 181.803 746.664 188.036 738.356C205.889 714.558 224.387 691.259 242.184 667.41C247.386 660.439 255.253 653.058 258.541 644.976C259.909 641.615 260.148 637.197 258.563 633.863C253.663 623.565 208.374 612.093 196.419 607.511C204.309 598.127 217.972 585.312 226.873 576.367L273.506 529.033C280.454 522.074 294.949 509.697 299.036 502.044C297.68 501.17 296.503 500.134 294.974 500.13C292.516 502.664 294.761 505.611 288.275 511.643C282.432 517.077 275.861 522.61 270.019 527.989L210.234 582.528C203.34 588.83 188.156 601.362 183.099 607.765C196.512 613.855 212.075 619.887 225.805 625.537C260.481 639.806 238.641 654.109 221.888 673.208L188 712.382C178.754 723.366 169.623 734.445 160.605 745.617C155.865 751.443 150.293 758.794 145.208 764.05C142.745 764.076 131.446 764.531 130.084 763.886L130.384 763.002C133.896 758.133 141.08 750.141 145.162 745.193C156.563 731.208 168.16 717.385 179.949 703.727C188.065 694.304 205.81 676.451 210.11 665.688C211.712 661.679 209.929 657.354 206.937 654.551C195.075 643.434 143.112 629.956 138.472 617.656C136.826 613.292 138.707 609.206 141.381 605.745C150.223 594.303 171.44 579.583 183.52 569.957C204.299 553.401 224.812 536.463 245.895 520.293C250.433 516.812 267.772 505.008 269.682 500.802L268.752 500.155C267.011 500.218 261.167 505.369 259.429 506.7L231.74 527.632C211.138 543.223 190.01 558.178 169.539 573.916C153.713 586.083 137.168 597.396 122.772 611.22C118.283 615.531 119.829 619.324 124.402 622.427C132.062 627.625 140.837 631.367 149.163 635.299C157.208 639.114 165.206 643.027 173.154 647.039C178.267 649.595 183.525 651.959 188.034 655.523C192.358 658.64 194.821 666.311 191.124 670.677C172.4 692.781 152.863 714.32 133.595 735.986C125.273 745.344 116.812 754.945 108.231 764.048C102.911 763.907 98.2439 763.846 92.9 763.988C102.931 750.896 119.015 733.738 130.205 721.313C147.335 702.019 164.677 682.914 182.228 664.002C165.824 654.506 122.908 638.441 112.339 625.909C109.777 622.871 108.17 619.045 108.573 615.023C109.128 609.471 113.212 604.871 117.007 601.088C126.179 591.946 137.604 584.66 147.908 576.831C171.086 559.359 194.408 542.081 217.873 524.996L239.138 509.172C243.808 505.718 249.422 501.949 253.759 498.212L254.319 497.726C244.885 496.249 228.861 491.46 220.205 487.226C218.213 486.252 216.344 485.047 215.729 482.78C215.268 481.082 216.002 479.165 217.039 477.843C219.083 475.238 223.617 474.51 226.715 474.232C230.385 473.902 234.042 474.225 237.654 474.905C248.976 477.037 301.383 490.84 307.538 496.279C309.271 497.81 310.481 499.807 310.586 502.157C310.718 505.097 309.066 507.139 307.338 509.328C300.319 518.217 291.051 526.324 283.1 534.443C267.038 550.719 251.105 567.122 235.302 583.65C229.291 589.96 221.989 597.006 216.407 603.458C223.004 604.887 233.606 608.452 240.013 610.802C252.645 615.434 263.375 618.309 269.501 631.086C282.33 614.702 295.015 598.206 307.555 581.6C312.501 575.035 317.328 567.815 322.512 561.487C324.387 559.199 326.61 558.715 329.347 558.046C329.791 555.824 329.535 550.202 329.561 547.513C329.642 539.268 329.339 530.571 329.601 522.361C329.785 516.612 331.625 510.65 331.897 504.494C332.171 498.297 331.303 487.929 333.298 482.639C337.191 479.655 352.657 476.561 358.421 474.595C366.997 471.67 378.923 469.61 387.167 466.458C401.11 461.127 410.718 461.388 424.945 461.513C424.891 460.218 424.844 458.922 424.804 457.627C424.454 446.026 423.646 431.812 432.363 423.176C440.657 414.959 451.015 415.884 461.606 415.935L478.564 416.046C477.463 406.769 476.153 397.518 474.635 388.3C473.647 382.33 471.983 374.5 471.82 368.704C471.77 366.929 473.832 358.401 474.314 356.162C466.003 352.189 455.975 348.815 447.42 345.131C443.155 343.294 438.878 342.002 434.797 339.689C434.56 338.418 434.438 337.132 434.343 335.843C434.01 331.365 433.414 303.683 435.29 301.789C438.947 298.098 449.941 299.254 454.718 299.258C458.85 299.261 465.701 298.691 468.701 302.063C470.474 304.057 469.504 334.809 469.477 339.389L475.352 341.452C476.692 332.721 483.368 287.827 482.131 282.01C480.473 274.212 474.566 266.989 473.463 259.179C473.209 257.376 473.71 255.711 474.799 254.266C475.735 253.025 476.955 252.279 478.439 251.853C488.061 249.094 498.774 248.226 508.648 246.398C523.508 243.648 538.248 240.128 553.157 237.663Z"/><path fill="#B01919" d="M585.073 565.338C599.736 565.884 616.737 565.487 631.577 565.483L717.72 565.442C717.65 575.561 716.444 590.775 720.813 599.67C722.992 604.549 730.385 612.156 736.049 612.885C759.118 615.853 772.745 613.835 779.803 590.06C808.909 634.74 840.329 678.218 869.805 722.673C875.635 731.464 881.785 740.924 888.095 749.304C876.216 752.094 866.002 757.22 854.535 758.719C840.062 760.611 831.053 756.086 817.925 751.629C809.714 749.022 801.76 748.607 793.358 748.623C775.227 748.659 760.195 759.646 742.435 759.154C733.948 758.92 724.493 756.724 716.701 753.519C696.245 745.106 679.288 748.703 659.187 756.032C648.995 759.649 635.74 760.765 625.515 757.12C612.392 752.441 603.446 748.999 589.108 748.759C581.333 748.668 573.586 749.724 566.118 751.891C555.238 755.097 548.065 759.423 536.084 759.023C515.35 758.329 506.463 746.798 483.287 748.698C477.811 749.176 472.401 750.238 467.151 751.869C457.646 754.862 449.299 759.283 438.963 758.879C430.77 758.559 424.318 755.551 416.693 752.961C408.745 750.261 399.755 748.466 391.349 748.601C385.485 748.694 375.638 749.873 370.068 751.633C358.28 755.358 350.616 759.282 337.745 758.928C319.062 758.414 309.489 748.424 289.88 748.459C269.162 748.497 256.664 759.703 236.842 759.197C226.564 758.935 218.636 754.78 209.009 751.851C204.139 750.37 200.375 749.761 195.34 749.036C204.818 738.372 218.701 718.959 227.875 706.942L264.536 659.108C281.299 636.825 297.783 614.4 315.001 592.451C320.047 586.018 324.185 579.571 329.892 573.577C329.833 574.323 329.779 575.07 329.729 575.816C328.254 597.955 332.652 613.062 357.763 614.064C394.097 615.513 391.626 591.126 391.497 565.429L523.831 565.477C536.44 574.537 545.463 572.425 560.038 572.665C571.225 572.849 575.7 571.599 585.073 565.338Z"/><path fill="white" d="M281.107 682.25C283.856 682.875 285.444 684.305 285.767 687.142C283.496 694.396 264.4 725.034 259.928 733.458C259.337 734.57 257.713 736.079 256.682 736.918C253.969 736.807 252.451 736.038 251.796 733.351C253.334 726.964 273.724 693.405 277.811 685.716C278.408 684.594 280.063 683.096 281.107 682.25Z"/><path fill="white" d="M802.75 682.319C805.946 682.675 808.123 686.072 809.45 688.71C813.327 696.414 834.126 727.848 834.439 733.493C833.942 735.189 832.904 735.801 831.546 736.981C830.107 737.027 829.565 737.177 828.354 736.29C826.55 734.969 800.113 689.368 799.936 687.344C799.758 685.293 801.496 683.698 802.75 682.319Z"/><path fill="white" d="M355.086 682.927C357.181 682.933 358.067 683.111 359.664 684.352C361.188 687.525 358.544 693.98 356.977 696.923C352.698 704.956 344.735 731.793 338.976 737.043C337.447 736.888 333.177 735.736 333.707 734.042C336.592 724.831 349.883 688.884 355.086 682.927Z"/><path fill="white" d="M316.704 683.445C325.123 683.119 322.811 689.698 319.913 694.114C314.516 702.34 303.87 730.677 297.61 736.365C296.462 736.366 295.506 736.237 294.463 735.749C293.649 735.367 292.785 734.54 292.625 733.623C292.034 730.243 313.693 687.298 316.704 683.445Z"/><path fill="white" d="M393.167 682.857C395.399 682.818 399.192 684.122 398.523 686.552C396.193 695.007 385.705 732.201 380.878 736.946C378.668 736.987 378.079 737.027 376.307 735.814C374.853 733.169 376.16 728.609 377.357 726.051C381.539 717.115 387.293 689.046 393.167 682.857Z"/><path fill="white" d="M722.208 682.809C723.292 683.06 724.106 683.271 724.883 684.133C728.053 687.65 745.676 730.274 745.195 733.833C744.985 735.389 743.795 736.295 742.689 737.254C741.418 737.032 739.344 736.726 738.741 735.727C735.392 730.174 719.055 689.742 718.967 686.125C719.587 684.455 720.74 683.892 722.208 682.809Z"/><path fill="white" d="M762.117 682.842C766.542 683.798 768.528 687.879 769.882 691.792C771.908 697.646 789.226 730.032 788.925 733.183C788.315 734.792 787.5 735.153 786.099 736.175C784.561 736.024 784.524 735.953 783.06 735.385C779.973 732.212 759.508 690.384 759.221 686.621C759.888 684.65 760.523 684.319 762.117 682.842Z"/><path fill="white" d="M681.078 682.837C683.69 683.084 685.344 684.059 686.216 686.609C690.127 698.052 693.902 709.554 697.764 721.015C698.905 724.401 700.974 729.49 701.404 732.879C701.037 734.755 700.026 735.291 698.542 736.56C697.487 736.562 695.705 736.603 694.889 735.889C692.733 734 678.68 690.74 678.264 686.175C678.781 684.392 679.61 684.003 681.078 682.837Z"/><path fill="white" d="M768.435 617.822C770.185 618.013 771.553 618.026 772.553 619.722C780.595 633.345 788.411 647.173 796.137 660.985C797.813 663.981 795.693 665.268 793.424 666.856C791.687 666.649 790.447 666.584 789.251 665.189C786.265 661.703 765.264 624.034 765.498 621.753C765.675 620.018 767.219 618.87 768.435 617.822Z"/><path fill="white" d="M511.052 683.482C512.965 683.321 513.546 683.135 515.366 683.821C516.616 685.188 516.982 686.019 516.801 688.005C515.417 703.191 513.809 718.513 511.744 733.622C511.547 735.061 510.589 736.037 509.626 737.006C507.297 736.817 503.768 736.537 503.794 733.468C504.079 726.195 505.088 717.906 506.207 710.714C507.138 704.725 507.517 687.738 511.052 683.482Z"/><path fill="white" d="M640.948 682.892C646.121 684.319 645.803 687.606 647.079 692.404C650.426 704.993 654.031 717.535 657.11 730.187C658.086 734.2 657.524 735.154 654.16 737.125C650.812 736.015 649.574 733.794 649.043 730.439C647.818 722.706 636.983 691.78 637.731 686.009C638.746 684.172 639.116 684.089 640.948 682.892Z"/><path fill="white" d="M432.859 683.407C435.12 683.609 436.082 683.643 437.486 685.519C437.659 693.092 432.297 706.665 430.764 714.609C429.566 720.812 427.263 728.085 425.448 734.132C425.088 735.329 423.693 736.298 422.668 736.948C416.521 735.685 417.872 732.215 419.167 727.29C422.038 716.373 424.855 705.444 427.678 694.516C428.727 690.455 429.159 685.679 432.859 683.407Z"/><path fill="white" d="M470.41 683.434C472.9 683.28 476.908 684.243 476.283 687.007C474.289 695.827 470.721 730.01 466.211 735.772C464.332 736.124 463.194 736.271 461.463 735.459C460.88 734.725 460.258 734.092 460.448 733.032C461.969 724.576 466.043 688.479 470.41 683.434Z"/><path fill="white" d="M555.926 683.411C559.388 683.352 561.592 683.816 561.667 687.849C561.832 699.619 561.707 711.406 561.863 723.184C561.916 727.21 562.62 733.245 560.025 736.359C558.133 736.629 557.459 736.876 555.627 736.276C551.629 732.417 554.141 693.663 553.751 686.293C553.721 685.719 555.418 683.946 555.926 683.411Z"/><path fill="white" d="M316.357 617.864C317.542 618.123 318.904 618.285 319.814 619.171C320.434 619.776 320.955 620.884 320.871 621.771C320.668 623.9 299.547 660.295 297.031 663.769C295.966 665.239 294.824 666.199 293.388 667.283C285.58 665.526 289.986 658.213 293.174 654.34C299.16 647.066 309.869 622.423 316.357 617.864Z"/><path fill="white" d="M600.507 683.415C601.496 683.528 603.088 683.645 603.8 684.364C606.105 686.694 613.418 727.878 613.47 733.379C612.871 734.959 611.829 735.483 610.453 736.518C609.194 736.254 607.834 736.053 606.929 735.044C604.781 732.65 597.39 691.853 597.154 686.388C597.972 684.702 598.889 684.389 600.507 683.415Z"/><path fill="white" d="M347.778 618.3C354.138 619.961 353.778 624.205 350.466 628.547C345.067 635.626 335.742 662.018 330.114 666.732C328.35 666.673 326.905 666.713 325.538 665.464C324.895 664.877 324.465 664.138 324.451 663.249C324.405 660.393 341.852 626.822 344.364 622.463C345.296 620.845 346.487 619.627 347.778 618.3Z"/><path fill="white" d="M733.51 618.392C739.103 619.473 739.838 626.054 742.552 631.229C747.463 640.593 751.631 650.549 756.385 660.01C757.826 662.878 757.128 665.191 754.424 666.892L753.65 667.403C752.204 666.65 751.088 666.226 750.141 664.834C747.327 660.697 729.449 624.154 730.127 621.515C730.545 619.885 732.157 619.125 733.51 618.392Z"/><path fill="white" d="M380.436 618.376L380.883 618.424C382.776 618.615 386.485 619.94 385.637 622.242C382.323 631.244 372.323 661.013 366.177 666.67C365.179 666.597 360.401 666.134 361.056 664.258C364.284 655.009 374.362 625.314 379.898 619.014L380.436 618.376Z"/><path fill="white" d="M696.635 618.849C698.85 618.746 700.964 618.952 701.955 621.287C706.911 633.066 711.165 645.182 716.058 656.999C718.322 662.467 719.615 663.457 715.207 667.015C714.038 666.91 712.943 666.806 712 666.039C709.964 664.381 694.109 625.856 694.133 622.544C694.14 621.52 694.771 620.677 695.469 619.989C695.639 619.822 695.816 619.662 695.986 619.496L696.635 618.849Z"/><path fill="white" d="M660.39 618.796L660.851 618.834C662.488 618.953 663.804 619.026 665.04 620.223C666.128 621.277 679.476 660.615 679.466 662.721C679.46 664.059 678.957 665.018 678.003 665.949C677.831 666.116 677.653 666.276 677.481 666.443L676.822 667.099C675.401 667.007 674.063 667.084 672.915 666.107C671.042 664.513 658.262 625.867 658.111 622.552C658.065 621.53 658.536 620.681 659.231 619.965C659.613 619.572 660.007 619.189 660.39 618.796Z"/><path fill="white" d="M413.94 618.882C415.869 619.038 420.427 620.174 419.516 622.741C416.365 631.622 408.71 661.101 403.311 666.537C394.499 666.212 398.796 657.674 401.053 652.112C404.144 644.494 408.859 624.233 413.94 618.882Z"/><path fill="white" d="M518.062 618.28C520.546 619.102 522.412 619.928 522.377 622.993C522.33 627.131 521.925 631.368 521.607 635.501L519.473 660.501C519.166 664.214 518.311 665.613 515.605 667.822C513.283 667.338 510.903 666.563 511.057 663.517C511.707 650.682 512.928 637.799 514.085 624.997C514.416 621.339 515.315 620.365 518.062 618.28Z"/><path fill="white" d="M448.066 618.972C457.521 618.984 452.671 627.516 451.285 633.775C449.743 640.736 447.374 647.801 445.631 654.77L445.131 656.769L444.357 659.994C443.299 663.996 443.736 664.252 440.725 666.921C431.459 667.009 437.298 654.55 438.701 649.579C440.069 644.572 441.376 639.548 442.623 634.508L442.83 633.712C443.008 633.003 443.217 632.202 443.384 631.491L443.915 629.242C444.76 625.503 444.691 622.319 447.465 619.58L448.066 618.972Z"/><path fill="white" d="M624.501 618.817C630.169 619.322 629.875 621.704 631.131 626.991L631.653 629.225C631.72 629.486 631.788 629.746 631.855 630.007L632.346 632.008C632.979 634.694 633.715 637.348 634.348 640.008L636.607 649.492C637.599 653.786 639.423 659.679 639.544 663.973C639.576 665.106 637.787 666.479 636.988 667.229C631.918 666.749 631.657 665.055 630.567 659.746L630.144 657.735L629.593 655.243C627.454 644.343 624.04 633.405 621.938 622.499C621.783 621.691 622.728 620.551 623.26 620.024L624.501 618.817Z"/><path fill="white" d="M589.807 619.475L590.533 619.485C597.537 619.524 596.42 625.566 597.413 632.004L597.941 635.255C598.835 641.499 599.911 647.776 600.92 654.004L601.423 657.004C602.347 662.574 603.791 662.851 600.056 666.721C595.482 667.583 594.248 665.839 593.563 661.249C592.756 655.845 591.825 650.406 591.078 644.996L590.09 637.996C589.615 634.532 588.844 630.713 588.528 627.248C588.116 622.725 586.812 622.465 589.807 619.475Z"/><path fill="white" d="M483.36 618.377C487.712 620.009 488.672 620.572 487.753 625.453C486.76 630.723 485.55 635.981 484.599 641.257L483.096 649.756L482.084 655.506C481.453 659.593 481.61 664.744 477.851 666.868L476.98 667.39C472.616 666.356 472.166 664.529 472.88 660.252C473.9 654.138 475.321 648.094 476.411 641.993C476.925 638.988 477.492 635.992 478.109 633.007C479.185 627.702 478.801 621.541 483.36 618.377Z"/><path fill="white" d="M556.219 618.349C557.972 618.703 559.833 618.95 560.967 620.498C561.928 621.812 562.109 660.679 561.472 664.753C561.262 666.097 559.555 667.049 558.561 667.719C555.318 667.215 553.728 666.519 553.65 662.758C553.391 650.326 553.615 637.856 553.597 625.42C553.591 621.868 553.781 620.703 556.219 618.349Z"/><path fill="white" d="M683.568 580.289C689.578 581.455 690.116 589.018 692.478 594.252C694.824 599.453 695.133 601.632 690.991 604.561C690.182 604.408 687.916 604.139 687.344 603.073C684.999 598.704 680.903 588.812 680.448 583.987C680.319 582.624 682.778 580.926 683.568 580.289Z"/><path fill="white" d="M519.953 580.833C529.697 582.123 524.241 590.882 524.573 598.007C524.657 599.807 524.284 602.099 522.873 603.363L521.467 604.599C517.426 604.275 515.464 602.705 516.071 598.504C517.113 591.294 514.551 586.102 519.953 580.833Z"/><path fill="white" d="M585.693 580.823C591.846 581.765 591.299 586.926 591.958 592.253C592.645 597.808 594.221 601.479 589.585 604.679C582.256 603.17 584.35 597.733 583.068 590.994C581.945 585.084 581.045 583.887 585.693 580.823Z"/><path fill="white" d="M424.953 580.809C434.081 581.596 429.702 589.386 427.513 594.929C426.317 597.958 425.997 601.228 423.597 603.479L423.026 604.038C414.471 603.698 418.193 597.882 419.735 592.159C420.537 589.184 422.356 583.742 424.388 581.469L424.953 580.809Z"/><path fill="white" d="M650.527 580.832C654.45 580.954 655.904 582.327 656.346 586.507C657.1 593.656 663.87 599.435 657.702 604.332C653.569 604.247 652.735 603.382 651.637 598.992C650.419 594.127 648.33 589.253 647.783 584.308C647.654 583.148 649.807 581.487 650.527 580.832Z"/><path fill="white" d="M554.945 580.775C561.038 581.221 561.302 583.981 560.975 589.748C560.653 595.429 562.616 600.338 558.435 604.371C556.079 604.469 553.381 604.342 553.02 601.256C552.569 597.395 551.951 585.057 553.926 582.215L554.945 580.775Z"/><path fill="white" d="M616.532 580.825C620.119 581.393 622.025 583.071 622.419 586.756C623.105 593.172 628.279 599.643 622.736 604.267C616.884 604.458 616.805 600.939 616.097 595.24C615.217 588.15 611.202 585.518 616.532 580.825Z"/><path fill="white" d="M456.738 581.421C464.979 581.875 462.727 586.376 460.906 592.991L460.366 594.991C459.487 598.142 459.079 601.195 456.658 603.526L456.095 604.09L455.639 604.058C445.796 603.438 453.246 593.407 453.882 587.728C454.162 585.236 455.054 583.239 456.738 581.421Z"/><path fill="white" d="M488.08 581.406C495.074 581.226 493.895 586.835 492.872 591.99C492.229 595.225 491.88 601.126 489.706 603.508L489.215 604.071L488.479 604.06C480.514 603.993 483.752 598.323 484.418 592.237C484.783 588.906 485.183 584.477 487.485 582.052L488.08 581.406Z"/><path fill="#B01919" d="M497.068 280.964C534.631 281.735 573.866 280.923 611.693 281.282C614.15 301.895 617.243 326.333 620.551 346.667C613.189 348.148 605.47 349.447 598.06 350.804L588.857 352.578C579.573 339.142 571.058 338.867 556.07 338.964C538.368 339.077 532.458 337.48 519.723 351.697C510.393 350.956 498.332 348.037 488.574 346.677C491.565 325.626 494.592 302.012 497.068 280.964Z"/><path fill="#B01919" d="M533.783 386.73C549.018 386.387 565.052 386.639 580.346 386.652L580.322 456.969C580.323 467.35 580.96 482.089 580.286 491.843C578.607 492.753 578.165 492.387 575.942 492.371C560.035 492.236 543.924 492.413 528.002 492.461L528.048 425.21C528.037 412.967 527.76 399.477 528.168 387.369C529.43 386.636 532.193 386.777 533.783 386.73Z"/><path fill="#B01919" d="M740.561 508.601C755.954 508.228 766.961 506.635 766.47 526.248C765.963 546.471 766.863 567.072 766.262 587.325C766.046 594.593 763.2 598.493 756.167 600.486C750.757 600.707 743.916 601.719 738.79 599.64C735.4 598.266 732.411 595.462 731.181 591.976C730.121 588.97 729.86 527.508 730.388 520.864C730.547 518.873 730.994 517.379 731.937 515.628C733.857 512.064 736.706 509.757 740.561 508.601Z"/><path fill="#B01919" d="M352.856 508.203C358.667 507.967 366.764 507.108 372.042 509.669C374.863 511.037 376.727 513.675 377.664 516.616C378.863 520.377 378.821 581.597 378.201 588.67C378.037 590.542 377.692 591.939 376.78 593.581C374.772 597.2 371.74 599.244 367.854 600.433C346.456 601.045 342.357 600.863 342.816 576.959C343.18 558.052 342.355 538.475 342.915 519.524C343.094 513.431 346.86 509.145 352.856 508.203Z"/><path fill="#B01919" d="M528.017 505.581L580.472 505.559C580.396 518.447 581.256 534.629 579.683 547.341C579.359 549.961 577.309 552.841 575.648 554.882C568.778 561.027 557.86 559.133 549.192 559.448C526.7 560.266 527.851 547.148 527.912 531.092L528.017 505.581Z"/><path fill="#B01919" d="M593.924 534.505L717.505 534.603L717.518 552.023L643.831 551.809C627.309 551.753 609.836 551.359 593.406 551.972L593.924 534.505Z"/><path fill="#B01919" d="M409.125 534.75L514.494 534.581C514.475 540.36 514.351 546.089 514.842 551.848L497.75 551.888L391.694 552.01C391.65 546.301 391.718 540.592 391.896 534.886L409.125 534.75Z"/><path fill="#B01919" d="M486.687 359.752C495.081 361.518 506.105 363.521 514.514 364.692L514.561 425.115C514.563 427.591 514.994 443.623 513.916 445.055C507.895 444.964 501.872 445.003 495.852 445.173C494.203 430.278 491.594 415.13 489.744 400.244C487.789 384.52 484.55 375.588 486.687 359.752Z"/><path fill="#B01919" d="M619.754 360.138C621.252 359.879 620.598 359.712 621.818 360.287C622.447 362.996 622.741 367.957 622.434 370.734C619.7 395.532 614.901 420.18 612.198 444.989C606.813 444.911 601.274 444.968 595.875 444.959C594.897 444.983 594.879 444.923 593.902 444.744C592.907 442.184 593.789 375.26 593.693 365.203C602.39 363.564 611.077 361.876 619.754 360.138Z"/><path fill="#B01919" d="M513.843 489.609L514.297 489.95C514.789 492.469 514.548 517.269 514.541 521.357C504.214 520.692 489.42 521.431 478.639 521.456L408.504 521.454L407.658 520.938C408.793 519.667 503.273 492.275 513.843 489.609Z"/><path fill="#B01919" d="M593.956 490.143C605.429 491.774 616.963 496.27 628.287 499.276C651.286 505.382 673.787 512.005 696.517 519.038C699.36 519.702 701.31 520.51 703.989 521.522C692.511 521.546 674.742 521.806 663.629 521.328C641.644 521.644 615.34 520.011 593.843 521.364C593.827 510.957 593.865 500.55 593.956 490.143Z"/><path fill="#F5342A" d="M696.517 519.038C699.36 519.702 701.31 520.51 703.989 521.522C692.511 521.546 674.742 521.806 663.629 521.328C665.135 520.103 689.582 521.22 693.253 520.794C695.657 520.515 695.946 521.225 696.517 519.038Z"/><path fill="#B01919" d="M281.074 496.303C284.831 500.24 284.531 502.475 280.55 506.281C262.375 523.656 242.764 539.527 223.965 556.227L181.907 593.756C175.596 599.29 169.473 605.227 162.819 610.255C176.396 616.547 190.119 622.522 203.975 628.175C210.695 630.974 228.253 637.438 232.501 641.901C232.442 644.702 224.057 653.098 221.76 655.602C220.497 652.714 219.373 650.413 217.048 648.181C207.091 638.623 151.838 617.798 150.343 613.97C150.051 613.22 150.049 613.562 150.369 612.698C151.161 610.564 153.192 608.66 154.827 607.125C162.881 599.561 171.956 592.758 180.441 585.661C203.788 566.251 227.34 547.089 251.094 528.179C260.541 520.569 271.276 512.461 279.798 503.83C281.34 502.269 281.264 499.26 280.315 497.321C280.568 496.982 280.821 496.642 281.074 496.303Z"/><path fill="#B01919" d="M390.845 516.574C388.992 499.863 372.211 492.669 357.492 494.638C354.512 495.037 347.768 496.438 345.483 495.492C345.023 493.663 344.934 494.502 345.566 492.879C348.729 490.227 365.259 486.419 370.255 485.067C381.522 482.019 393.134 477.828 404.526 475.674C409.674 474.7 419.26 475.358 424.885 475.465C424.774 484.032 424.823 492.6 425.03 501.164C418.502 503.259 395.806 508.338 392.808 512.694C392.923 515.008 393.378 520.213 391.829 521.997C390.781 520.37 390.882 518.513 390.845 516.574Z"/><path fill="#B01919" d="M683.519 475.127C686.753 475.093 698.435 474.87 700.795 475.397C710.904 477.65 722.667 480.986 732.671 483.955C742.681 486.925 753.029 488.998 762.756 491.875C763.504 493.468 763.395 493.849 763.371 495.574C762.643 496.305 760.385 495.527 758.97 495.277C752.525 494.138 744.752 494.241 738.298 495.078C729.404 497.296 720.928 503.871 718.468 513.097C717.698 515.984 717.953 520.135 716.553 521.986L715.809 521.784C714.903 519.199 716.048 512.813 714.742 511.469C710.678 507.289 689.271 502.889 683.547 501.403L683.519 475.127Z"/><path fill="#B01919" d="M627.736 429.412C634.964 429.44 655.202 428.513 661 429.59C662.31 429.834 663.572 430.433 664.694 431.136C667.458 432.868 669.523 435.505 670.182 438.722C670.527 440.403 670.869 460.978 670.202 461.689C669.616 462.315 666.496 461.906 665.723 461.888C651.443 461.371 637.114 461.677 622.828 461.704C624.305 450.97 626.407 440.161 627.736 429.412Z"/><path fill="#B01919" d="M453.075 429.246L480.659 429.085C482.07 439.439 483.397 451.418 485.449 461.57L470.75 461.566L438.298 461.562C438.683 446.009 433.435 429.908 453.075 429.246Z"/><path fill="#B01919" d="M552.604 251.168C556.57 250.641 611.762 262.293 619.084 263.907L616.849 267.549C597.13 266.73 576.557 267.158 556.734 267.185L510.416 267.14C505.892 267.149 494.815 268.137 491.358 266.898C489.892 265.42 490.408 266.284 489.915 264.121C491.266 262.505 503.544 260.891 506.722 260.237L552.604 251.168Z"/><path fill="#B01919" d="M540.044 352.604C546.2 352.11 552.674 352.487 558.865 352.318C564.596 352.162 570.37 352.247 574.833 356.387C580.005 361.185 579.99 366.846 580.334 373.348C576.641 373.255 572.948 373.181 569.254 373.125C555.629 373.053 541.811 373.247 528.171 373.327C528.226 362.677 529.491 357.03 540.044 352.604Z"/><path fill="#B01919" d="M438.445 475.372C454.616 475.377 471.247 475.22 487.388 475.498C487.629 477.9 487.948 480.238 488.194 482.65C485.145 483.526 480.167 484.911 477.345 485.948C465.381 489.471 450.136 493.614 438.504 497.495C438.417 490.121 438.397 482.746 438.445 475.372Z"/><path fill="#B01919" d="M656.435 475.252C661.111 475.201 665.789 475.189 670.465 475.216L670.468 497.244C661.147 494.463 651.749 491.919 642.488 488.94C639.545 488.114 636.739 487.239 633.756 486.432L619.824 482.553C620.321 479.609 620.463 478.503 620.738 475.478L656.435 475.252Z"/><path fill="#B01919" d="M498.499 458.62C503.831 458.635 509.164 458.614 514.497 458.557C514.493 463.972 514.629 469.934 514.341 475.348C514.314 475.856 512.312 476.067 512.033 476.11C508.517 476.872 505.092 477.9 501.641 478.902C500.28 472.118 499.694 465.363 498.499 458.62Z"/><path fill="#B01919" d="M593.793 458.613C599.465 458.61 604.029 458.475 609.681 458.997C609.02 461.975 608.487 464.98 608.082 468.003C607.691 470.834 607.287 473.559 606.784 476.374C606.743 476.524 606.379 478.315 606.041 478.26C602.197 477.632 597.902 475.934 593.86 475.096C593.769 469.602 593.747 464.108 593.793 458.613Z"/><path fill="#B01919" d="M447.828 312.654L455.712 312.607C455.682 319.119 455.455 326.927 455.745 333.37C453.984 333.137 449.708 331.606 447.762 331.043L447.828 312.654Z"/><path fill="#B01919" d="M653.657 312.757C655.467 312.719 657.603 312.619 659.369 312.693C659.408 316.807 659.485 326.336 659.313 330.815C659.295 331.287 655.971 332.457 655.126 332.793C654.54 333.034 651.459 334.655 652.049 332.806C653.024 329.746 650.198 312.751 653.657 312.757Z"/><path fill="#F5342A" d="M280.315 497.321C275.642 496.097 232.437 483.742 232.042 483.191C232.19 482.296 234.41 482.993 234.995 483.135C243.13 485.109 253.68 488.341 261.509 490.373L262.492 490.621L264.491 491.139C265.075 491.291 265.659 491.443 266.243 491.595L268.241 492.115C272.212 493.173 277.359 494.559 281.074 496.303C280.821 496.642 280.568 496.982 280.315 497.321Z"/></svg>