<?xml version="1.0" encoding="utf-8" ?><svg xmlns="http://www.w3.org/2000/svg" xmlns:xlink="http://www.w3.org/1999/xlink" width="1024" height="1024" viewBox="0 0 1024 1024"><path fill="#B01919" d="M0 0L486.633 0L536.753 0L1024 0L1024 486.074L1024 535.901L1024 1024L537.798 1024L489.729 1024L0 1024L0 531.4L0 489.758L0 0Z"/><path fill="white" d="M0 0L486.633 0L486.059 0.104008C478.858 1.33791 468.391 1.51022 460.571 2.43967C439.836 4.90423 419.164 7.64004 398.778 12.3133C277.623 40.2773 170.628 111.024 97.4549 211.555C51.2658 274.679 20.412 347.692 7.33789 424.81C5.16821 437.808 3.44432 450.876 2.16923 463.991C1.58712 470.646 1.25928 483.791 0 489.758L0 0Z"/><path fill="white" d="M0 531.4L0.0815442 531.896C1.47928 540.91 1.56677 555.202 2.6034 565.219C5.02891 586.577 8.61295 607.787 13.3397 628.756C18.832 653.515 28.0085 681.346 37.5936 704.827C73.2914 792.445 132.552 868.468 208.807 924.472C272.715 971.853 346.881 1003.52 425.302 1016.91C438.335 1019.24 451.473 1020.94 464.668 1022.01C471.207 1022.55 484.043 1022.89 489.729 1024L0 1024L0 531.4Z"/><path fill="white" d="M536.753 0L1024 0L1024 486.074C1022.77 480.462 1022.33 467.72 1021.72 461.422C1020.52 449.372 1018.84 437.373 1016.7 425.454C1005.43 356.659 979.789 291.01 941.451 232.786C884.978 146.601 804.079 79.2202 709.103 39.2612C688.142 30.4229 666.242 22.4386 644.157 16.9221C620.675 10.8876 596.823 6.39653 572.754 3.4777C566.568 2.68422 560.36 2.0767 554.138 1.65595C548.695 1.28808 541.922 1.21485 536.753 0Z"/><path fill="white" d="M1024 535.901L1024 1024L537.798 1024C543.389 1022.92 554.675 1022.62 561.138 1022.03C574.516 1020.87 587.837 1019.11 601.061 1016.78C673.489 1003.93 742.28 975.562 802.717 933.629C907.346 861.445 981.495 753.031 1010.83 629.348C1015.3 610.286 1018.65 590.976 1020.84 571.519C1021.98 560.523 1021.93 546.389 1024 535.901Z"/><path fill="white" d="M811.669 246.585L812.384 246.729C813.417 250.094 802.686 281.481 802.652 286.65C802.608 293.353 805.534 305.221 806.959 312.119C768.33 321.849 729.633 334.512 690.996 344.338C672.329 349.085 664.689 360.173 656.784 376.674C653.445 383.646 649.198 391.383 645.543 398.354C633.684 420.921 621.939 443.548 610.311 466.234C603.118 480.254 595.861 495.033 588.352 508.804C593.759 526.732 603.288 545.737 602.954 564.247C602.589 584.46 603.617 605.442 602.041 625.445C601.198 636.141 587.26 647.783 576.795 647.115C566.32 647.175 555.986 647.177 545.539 647.14L497.742 647.357L322.143 647.281L246.671 647.051C241.915 647.055 236.86 647.312 232.136 647.07C213.533 646.116 198.507 651.916 186.907 633.48C185.365 630.389 183.857 625.782 183.729 622.222C183.033 602.878 183.259 583.427 183.157 564.057C183.104 554.162 182.982 543.99 183.432 534.133C186.1 530.897 193.595 524.025 196.883 520.943C203.068 515.146 210.142 507.846 216.62 502.595C221.712 502.474 226.972 502.506 232.074 502.556C265.67 502.884 299.553 501.877 333.113 502.934L365.317 417.613L373.596 395.768C385.281 364.421 388.426 368.018 420.335 368.013L459.039 368.008L495.1 367.964C505.016 367.957 515.523 366.56 524.251 371.472C534.714 377.36 536.545 388.531 539.525 398.996C555.324 376.423 570.993 353.759 586.531 331.006C593.408 321.062 600.505 310.017 608.084 300.673C618.279 288.105 632.4 286.206 647.437 282.942L678.5 276.144C722.619 266.383 767.963 257.504 811.669 246.585Z"/><path fill="#B01919" d="M439.389 399.661C458.948 398.767 479.801 399.946 499.45 399.71C511.435 399.565 516.097 416.006 520.291 425.431L535.239 458.997L545.776 482.776C548.122 488.016 552.094 495.54 553.154 501.03C554.909 510.115 547.234 515.977 539.44 517.422C507.195 517.749 474.894 517.179 442.608 517.367C437.372 518.415 426.29 511.78 426.03 505.556C424.781 475.551 425.326 443.928 425.404 413.816C425.426 405.209 432.528 401.014 439.389 399.661Z"/><path fill="white" d="M315.415 663.222C331.896 662.78 350.242 663.141 366.812 663.149L463.622 663.368C472.525 663.408 481.428 663.389 490.33 663.31C493.442 663.278 508.033 662.837 510.132 663.642C521.249 667.906 535.462 677.466 546.083 683.521C570.82 683.145 595.726 683.753 620.483 683.459C626.863 683.384 633.236 683.788 639.454 685.311C649.556 687.843 658.825 692.962 666.347 700.164C677.969 711.375 684.565 726.807 684.637 742.955C684.814 759.09 678.43 774.605 666.947 785.943C659.987 793.077 651.214 798.181 641.571 800.705C627.48 804.283 599.266 803.26 583.54 803.247L509.632 803.179L290.871 803.119L230.019 803.181C218.125 803.217 204.963 803.891 193.383 802.37C139.32 795.269 120.223 727.667 164.813 695.066C182.317 682.269 197.916 683.455 217.975 683.443C230.195 683.528 242.416 683.476 254.635 683.287C258.169 683.227 269.084 683.605 271.867 682.87C284.085 679.644 303.347 664.149 315.415 663.222Z"/><path fill="#B01919" d="M200.022 719.667C207.951 719.239 218.559 719.529 226.618 719.525L274.621 719.517L422.359 719.521L555.448 719.512L599.132 719.483C610.483 719.476 627.324 717.543 636.529 724.401C641.774 728.239 645.249 734.03 646.167 740.465C648.092 753.865 637.968 765.142 624.872 766.841C608.739 767.647 584.677 766.934 568.111 766.944L452.202 766.912L281.821 766.981C256.327 766.978 230.78 767.055 205.287 767.03C201.568 766.771 196.049 767.013 192.75 765.295C185.931 761.744 180.523 755.599 178.979 747.941C177.739 741.667 179.102 735.158 182.754 729.907C187.112 723.752 192.857 720.964 200.022 719.667Z"/><path fill="white" d="M841.793 214.632C847.548 214.227 852.756 215.539 857.14 219.512C858.903 221.11 860.01 223.489 861.079 225.588C864.228 231.772 891.803 290.809 891.795 293.903C891.795 294.148 891.779 294.392 891.777 294.636C891.713 302.544 890.519 310.516 889.733 318.389L885.515 359.644L872.381 490.56C862.694 487.294 858.609 485.81 848.459 489.28C841.395 492.666 841.796 495.43 836.835 500.557C835.613 501.821 828.943 506.095 827.086 507.326C825.478 474.137 823.515 440.966 821.198 407.818L816.806 333.917C816.218 324.495 815.731 315.173 814.888 305.581C814.633 302.674 811.411 289.756 812.074 287.402C818.066 266.119 823.37 242.387 831.17 221.786C832.711 217.717 838.373 215.585 841.793 214.632Z"/><path fill="white" d="M855.079 496.602C874.794 495.291 875.862 506.806 874.78 522.531C884.347 531.504 890.882 547.143 892.797 559.992C895.819 580.013 890.727 600.413 878.651 616.666C866.555 633.071 848.312 643.855 828.108 646.544C813.036 648.665 794.382 645.469 781.098 637.9C774.681 634.243 765.904 627.3 759.746 622.641C747.863 613.164 734.557 604.531 722.741 595.001C718.831 590.864 696.027 579.523 707.492 572.463C712.381 569.453 732.747 577.941 739.069 579.602C741.787 578.125 748.025 573.531 750.852 571.6L775.954 554.485C798.67 538.931 823.406 522.663 845.451 506.443C847.597 500.411 849.176 498.903 855.079 496.602Z"/></svg>