<?xml version="1.0" encoding="utf-8" ?><svg xmlns="http://www.w3.org/2000/svg" xmlns:xlink="http://www.w3.org/1999/xlink" width="1024" height="1024" viewBox="0 0 1024 1024"><path fill="white" d="M358.663 211.412L426.072 274.593C437.163 284.942 451.291 298.898 462.706 308.358C468.485 306.438 474.426 305.028 480.331 303.531C498.294 310.707 517.031 320.511 535.399 327.728C520.433 330.322 505.56 332.196 490.544 334.378C497.947 342.103 509.012 351.16 517.308 358.48L558.161 394.752C563.931 399.797 577.313 410.798 581.885 416.007C585.401 413.473 590.536 409.537 594.159 407.453C596.75 408.476 612.439 417.977 615.687 420.078C626.484 427.063 642.948 435.16 653.03 442.469C640.758 445.088 628.498 449.074 616.191 451.861C628.207 463.364 642.654 475.29 654.066 486.851C658.778 480.806 661.98 476.939 667.661 471.629C678.084 476.06 689.632 482.771 699.9 487.872C704.508 490.161 728.078 501.225 729.62 504.163C729.876 505.879 729.983 505.802 729.197 507.316C726.432 509.4 700.659 518.973 696.356 520.357C688.925 517.546 677.811 513.476 670.711 510.219C660.551 517.38 641.436 518.555 629.735 516.125C587.707 507.395 585.727 474.763 538.057 494.583L542.361 501.443C586.187 482.413 600.875 525.793 642.47 524.632C647.381 524.495 652.39 524.675 657.267 523.988C664.327 523.117 672.878 517.609 679.62 517.664C681.207 517.677 682.071 518.891 682.777 519.947C682.961 521.203 683.21 522.385 682.342 523.423C677.621 529.061 662.706 532.176 656.248 532.982C642.598 534.684 625.986 533.465 613.389 528.101C589.671 518.003 577.45 500.161 549.288 509.358C553.03 514.893 558.52 524.134 563.697 528.072C566.403 530.13 585.057 532.118 588.15 530.781C589.489 529.175 590.12 527.354 592.359 527.246C598.347 526.959 603.311 531.171 608.485 533.572C622.919 540.227 638.046 541.734 653.758 540.821C667.39 540.291 679.577 534.026 692.01 529.156C696.749 527.3 698.449 535.255 695.229 537.058C667.226 552.739 633.969 554.67 604.903 540.795C607.809 548.791 611.359 556.615 614.6 564.487C617.209 570.824 619.56 577.183 622.576 583.335C625.964 583.474 639.705 582.627 641.486 584.989C648.657 594.503 631.868 593.634 626.963 593.688L629.347 601.346C629.598 602.109 629.565 602.01 629.961 602.726C634.416 602.385 640.314 601.339 642.727 606.226C642.768 611.386 636.267 612.171 632.328 612.803C605.119 617.164 585.894 592.074 559.099 594.141C549.606 594.874 543.373 597.522 534.698 600.737C522.54 605.243 510.072 609.755 496.982 609.54C471.546 610.185 453.156 593.041 427.993 595.897C403.561 598.671 393.526 612.18 367.255 612.088C339.14 611.989 325.473 595.156 298.56 595.864C284.726 596.229 273.132 602.332 260.614 607.043C251.952 610.303 238.76 612.433 229.49 612.4C219.732 612.305 210.044 610.735 200.755 607.745C184.523 602.352 176.578 596.285 157.696 596.712C133.379 597.006 114.77 614.024 90.0857 613.659C86.1886 613.601 73.619 613.064 82.1534 604.44C83.6451 602.933 94.3125 603.961 97.0047 603.518C100.504 602.941 105.247 601.98 108.79 600.892C122.83 596.309 131.042 591.366 145.839 588.315C181.954 580.867 201.134 605.286 235.68 602.473C263.604 600.2 277.368 583.805 307.061 586.167C329.535 587.954 345.867 602.644 366.875 602.53C395.345 602.375 408.845 582.438 440.526 586.124C459.266 588.305 465.262 594.047 480.833 597.464C468.801 586.211 456.43 577.24 439.776 577.007C433.953 576.845 425.74 576.353 420.09 578.071C398.61 584.606 385.907 595.253 362.003 593.273C337.374 591.233 320.095 573.801 294.845 577.041C285.623 578.225 278.384 580.692 269.891 584.416C255.404 590.31 243.424 593.583 227.71 593.341C207.416 593.029 193.98 584.2 175.06 579.74C168.043 578.385 159.274 577.647 152.191 578.467C131.865 580.914 115.35 593.325 94.5308 594.814C90.3757 595.112 77.1714 597.414 80.478 587.275C81.6957 583.541 92.7294 585.042 95.7753 584.578C98.1277 584.22 101.604 583.83 104.04 583.176C122.333 578.581 132.473 571.103 152.03 568.71C186.756 564.462 202.096 586.418 236.74 583.304C264.287 580.828 278.604 564.889 306.385 567.024C329.646 568.631 345.042 584.329 369.009 583.508C394.177 582.645 411.677 564.213 437.053 567.142C439.296 567.401 444.274 567.892 446.343 567.647C446.399 566.438 446.22 566.958 446.775 566.054C450.759 566.073 454.743 566.144 458.725 566.268L460.083 564.317C444.636 557.372 428.329 554.425 412.995 561.648C386.747 574.012 363.69 580.8 335.816 567.585C325.758 563.184 309.019 555.833 297.837 557.59C271.012 561.806 256.522 575.444 227.214 574.304C200.498 573.266 184.128 557.865 158.609 558.705C135.466 559.467 115.67 575.353 92.3854 576.156C88.3867 576.355 77.9892 577.572 80.114 569.607C85.8492 564.223 99.4747 567.166 106.818 564.063C111.941 561.898 116.006 560.93 119.724 559.23C147.68 546.446 172.574 545.368 200.37 558.655C209.575 563.056 226.754 565.048 237.016 564.263C261.06 562.692 279.317 546.531 303.886 547.631C327.443 548.684 346.257 567.046 369.251 564.732C405.134 561.12 426.309 534.836 464.149 555.414C487.026 567.855 512.658 565.124 534.87 553.207C539.911 550.831 549.458 547.689 555.233 545.555C554.193 543.827 553.033 541.987 552.079 540.225C530.54 543.331 523.948 553.421 500.261 554.735C472.197 556.293 459.097 540.281 435.318 539.314C411.965 538.363 397.986 555.395 370.772 556.625C339.525 558.038 331.45 541.866 303.599 539.304C287.346 537.81 274.27 546.163 260.154 551.296C252.854 553.88 245.242 555.48 237.52 556.054C224.568 556.985 211.569 555.058 199.445 550.409C185.896 545.27 177.867 540.409 162.791 539.223C143.765 537.726 132.973 544.396 115.721 549.732C96.7622 555.341 76.3293 556.4 56.8568 553.132C45.1034 551.16 33.3167 547.352 23.3369 540.759C20.7505 539.05 18.0327 535.61 20.6659 532.706C24.2218 528.784 28.2836 525.215 32.1502 521.575L53.3248 501.559L120.388 437.911L235.893 328.649C276.477 289.216 317.402 250.135 358.663 211.412Z"/><path fill="#b01d1d" d="M521.87 586.884C527.891 585.499 533.844 582.712 539.519 580.205C551.233 575.029 559.077 574.467 571.465 574.498C572.975 576.183 575.397 579.592 576.82 581.493C592.955 588.455 609.274 594.981 625.76 601.065L625.61 601.583C625.281 602.89 620.359 602.402 618.828 602.541C609.985 602.392 594.321 592.769 585.384 589.305C564.25 581.114 549.238 584.038 529.171 592.351C526.292 590.461 524.543 589.068 521.87 586.884Z"/><path fill="#b01d1d" d="M629.347 601.346C629.598 602.109 629.565 602.01 629.961 602.726C627.542 603.208 621.262 603.001 618.828 602.541C620.359 602.402 625.281 602.89 625.61 601.583L625.76 601.065C627.042 601.298 628.277 602.075 629.347 601.346Z"/><path fill="#b01d1d" d="M460.083 564.317C460.062 564.306 461.081 564.867 461.103 564.844C461.165 564.777 462.495 565.572 462.274 565.783C461.716 566.315 459.46 566.224 458.725 566.268L460.083 564.317Z"/><path fill="#b01d1d" d="M429.369 465.199C458.887 462.235 474.134 486.489 500.292 487.849C524.542 489.109 547.297 463.325 574.08 471.167C582.205 473.547 586.729 476.229 593.708 481.127C613.164 494.779 624.184 500.712 648.306 499.972C651.91 502.207 655.255 503.956 658.994 505.919C634.987 510.955 618.32 505.763 598.751 491.831C593.114 487.818 584.491 482.403 578.18 480.361C561.238 474.879 547.252 479.664 532.532 487.376C500.307 504.259 489.743 495.372 460.574 480.642C453.274 476.956 444.894 474.726 436.432 474.208C405.91 472.341 386.551 498.481 355.465 490.871C343.168 487.86 333.715 481.891 321.622 477.774C283.076 464.189 264.788 491.926 228.871 491.624C201.066 491.39 182.699 472.814 154.326 475.067C137.077 476.438 127.9 482.129 112.073 487.548C100.949 491.356 86.9388 492.327 75.1758 492.305C78.4397 489.416 81.6097 486.156 84.9885 483.159C93.7847 482.491 104.592 481.513 112.842 478.953C128.259 474.169 143.077 465.802 159.788 466.441C190.255 467.606 202.42 485.235 235.727 482.258C244.159 481.59 252.463 479.791 260.416 476.911C276.017 471.405 285.826 464.653 303.017 465.254C331.118 466.237 341.249 485.597 371.651 483.05C394.95 481.097 407.485 467.577 429.369 465.199Z"/><path fill="#b01d1d" d="M95.963 472.998C98.7872 470.331 101.586 467.6 104.502 465.034C110.217 460.006 117.79 458.782 124.739 456.148C181.05 434.803 190.797 467.333 237.168 463.445C262.138 461.352 281.423 443.963 305.553 446.05C329.689 448.138 343.141 465.765 369.779 464.486C394.01 463.322 412.981 443.68 437.645 445.521C461.614 447.311 477.923 467.905 503.253 467.632C526.093 467.385 544.161 449.701 567.181 451.993C593.268 454.59 606.392 479.744 635.047 481.544L635.769 481.584C638.517 484.491 641.505 487.112 644.473 489.792L645.732 490.712L645.515 491.26C643.524 491.364 643.485 491.366 641.531 490.981C621.745 491.159 605.621 478.463 590.214 467.972C582.124 462.462 575.369 460.961 565.966 459.936C542.558 457.383 522.705 478.049 501.922 477.781C480.363 477.502 462.233 456.641 438.651 455.101C411.324 453.318 393.46 471.924 368.357 473.465C346.135 474.829 329.578 457.098 306.371 455.275C278.006 453.048 263.264 469.968 236.512 472.359C229.664 472.971 218.504 472.597 211.982 470.705C191.469 464.751 176.368 455.373 153.679 456.9C138.055 457.952 126.546 464.016 112.13 468.956C107.549 470.525 100.864 471.918 95.963 472.998Z"/><path fill="#b01d1d" d="M433.319 425.704C458.061 425.864 475.444 447.219 501.427 448.286C518.461 448.986 529.353 442.151 545.253 437.662C553.933 435.211 559.154 434.674 567.844 434.092C578.154 440.669 593.198 446.315 603.787 452.927C608.384 455.797 618.682 465.469 622.682 469.519C607.917 464.188 599.502 454.607 586.212 447.562C572.221 440.146 554.018 441.599 539.639 446.958C532.91 449.466 526.028 452.495 519.142 454.946C498.724 462.214 484.37 454.421 466.17 445.079C444.124 433.764 428.819 432.066 405.811 442.355C398.22 445.568 390.963 449.308 383.139 451.96C363.353 458.667 348.716 452.254 331.276 443.499C285.937 422.062 272.39 451.71 230.257 453.598C218.262 454.136 205.904 450.635 194.762 446.397C167.939 436.192 150.661 436.994 123.935 445.773C126.758 443.03 134.912 434.565 138.002 433.059C147.299 428.529 160.597 428.987 170.595 430.347C184.061 432.178 195.718 438.962 208.726 442.127C218.39 444.421 228.374 445.052 238.25 443.995C263.708 441.351 282.804 424.065 305.573 426.13C328.341 428.196 342.157 447.931 369.035 445.527C395.377 443.17 406.093 427.818 433.319 425.704Z"/><path fill="#b01d1d" d="M153.873 521.219C184.615 518.975 197.15 537.33 229.017 538.429C239.668 538.704 250.273 536.921 260.249 533.178C273.305 528.225 281.121 522.958 295.666 521.587C322.219 519.086 334.84 535.861 361.449 538.558C395.04 541.963 408.856 517.851 440.571 521.239C450.315 522.28 465.112 530.008 475.157 533.259C479.617 534.703 488.656 535.858 490.791 536.731C497.956 539.661 501.161 541.277 509.042 543.549C499.769 544.732 490.453 545.107 481.508 542.705C458.652 536.569 443.893 524.536 418.738 531.07C408.652 533.69 400.82 538.22 391.128 542.265C350.214 557.473 338.629 532.16 302.258 529.382C279.251 527.624 260.287 545.493 236.827 546.325C225.428 546.729 213.489 545.441 202.766 541.344C187.837 535.64 178.619 530.392 162.059 529.504C136.422 528.13 118.183 542.213 93.0995 544.401C75.7746 545.912 45.8509 545.106 31.738 533.838C33.5384 531.477 34.2276 530.805 36.3814 528.778C61.285 539.921 91.3013 540.654 117.014 531.821C131.064 526.994 138.44 522.201 153.873 521.219Z"/><path fill="#b01d1d" d="M431.221 406.197C435.075 405.748 438.677 406.475 442.128 406.709C459.067 407.859 466.341 422.531 480.167 425.24C486.56 426.492 502.458 429.206 508.515 428.745C521.176 427.781 532.796 425.001 545.92 425.459C544.486 423.901 542.871 422.551 541.283 421.147C546.802 419.72 569.715 415.465 573.483 420.241L573.303 421.604C571.92 423.544 569.954 424.32 567.812 425.5C560.069 425.434 555.284 425.456 547.534 427.285C530.852 431.221 517.241 439.698 499.512 437.852C475.461 435.348 457.271 414.959 432.708 415.694C409.26 416.396 385.92 436.92 363.599 435.512C339.032 433.962 328.675 416.279 300.624 416.331C273.584 417.661 257.824 434.259 230.15 434.492C211.794 434.647 200.755 428.296 183.906 423.189C172.873 419.846 163.528 419.245 152.163 420.09C154.945 417.03 158.818 412.633 162.087 410.236C187.128 411.552 203.851 426.518 230.256 425.041C246.95 424.108 251.154 421.974 266.605 417.498C274.361 415.288 282.148 413.19 289.964 411.205C305.193 407.34 312.936 405.131 326.993 413.433C339.314 420.709 354.781 427.698 369.41 426.135C391.871 423.735 407.875 408.568 431.221 406.197Z"/><path fill="#b01d1d" d="M50.9784 515.207C72.3815 522.846 97.3659 521.459 118.539 513.662C134.004 507.967 138.827 504.087 155.972 503.377C178.848 502.429 185.667 509.994 204.639 516.084C213.354 518.788 222.439 520.103 231.563 519.984C260.147 519.823 278.405 500.768 305.074 502.792C329.39 504.637 343.756 522.166 370.585 520.261C394.754 518.546 407.827 504.766 431.083 502.588C451.337 501.443 461.494 508.82 475.461 521.281C476.929 521.956 478.265 523.447 479.446 524.594C476.587 523.558 474.062 522.871 471.411 521.365C470.483 521.203 465.587 519.166 464.443 518.704C455.376 515.043 447.991 511.509 438.009 510.821C408.732 508.801 393.514 530.608 363.817 528.793C338.317 527.235 322.479 508.656 296.652 511.156C270.414 513.695 258.285 529.141 229.76 528.574C199.466 527.973 186.312 509.955 156.512 510.889C139.603 511.418 132.157 515.939 116.918 521.528C93.6657 530.003 68.1844 530.094 44.8719 521.787C46.8487 519.909 49.1037 517.28 50.9784 515.207Z"/><path fill="#b01d1d" d="M475.461 521.281C476.929 521.956 478.265 523.447 479.446 524.594C476.587 523.558 474.062 522.871 471.411 521.365C473.209 521.214 474.253 521.778 475.461 521.281Z"/><path fill="#b01d1d" d="M297.193 484.204C325.822 481.525 344.39 506.883 377.233 500.909C395.344 497.614 402.072 491.177 418.683 486.361C442.257 479.526 460.221 490.346 480.003 501.791C466.826 503.637 468.582 502.733 456.954 497.462C449.693 494.252 441.85 492.57 433.911 492.522C408.411 492.206 395.72 508.507 370.93 510.249C340.211 512.407 322.918 487.447 290.2 493.603C274.591 496.539 265.659 502.634 250.83 507.192C208.913 518.562 196.127 494.138 158.485 493.159C144.631 492.799 132.664 497.519 120.124 502.57C99.3886 510.919 81.2073 512.62 59.3459 507.953C61.8928 505.171 63.6959 503.375 66.4856 500.835C106.244 508.32 123.963 486.756 159.443 484.946C188.331 486.457 204.353 503.519 235.048 501.28C259.053 499.53 274.985 486.152 297.193 484.204Z"/><path fill="#b01d1d" d="M426.579 345.672C457.199 342.873 466.222 361.052 492.561 370.847C501.436 374.148 511.886 374.464 521.252 373.993C523.905 376.107 526.897 379.212 529.376 381.648C482.899 389.053 479.572 362.177 439.89 355.52C411.43 350.746 384.443 379.107 353.484 371.369C342.839 368.708 337.286 366.049 327.326 361.957C306.662 354.439 292.124 354.156 271.368 361.254C251.706 367.978 232.28 370.59 212.484 362.663C214.389 360.745 216.395 358.523 218.262 356.536C224.591 358.907 229.066 359.074 235.528 359.608C260.633 361.682 278.662 346.185 303.476 347.394C319.767 348.187 327.708 353.384 342.548 358.667C351.091 361.708 364.278 362.176 373.243 361.503C391.667 360.12 408.379 348.321 426.579 345.672Z"/><path fill="#b01d1d" d="M426.589 325.177L427.332 325.122C449.228 323.574 466.131 337.405 483.657 347.944C489.85 351.669 494.748 352.62 500.827 355.559C503.407 356.806 509.81 362.572 512.297 364.727C479.962 362.005 467.796 338.564 437.951 335.223C409.114 331.995 382.616 358.559 351.835 350.443C341.85 347.81 334.213 344.581 324.631 341.242C279.539 326.323 265.513 355.897 226.724 348.451C229.313 345.962 232.12 343.488 234.792 341.068C261.254 343.44 276.583 328.092 300.75 328.334C328.893 328.617 343.211 344.658 373.616 341.363C395.109 339.034 407.92 327.723 426.589 325.177Z"/><path fill="#b01d1d" d="M262.062 374.205C294.154 364.158 303.069 360.793 335.734 376.053C344.73 380.255 355.138 382.751 364.976 382.649C404.606 382.239 421.828 350.766 462.821 373.627C469.76 377.497 482.788 384.736 490.165 388.058L477.821 390.491C455.585 378.845 440.361 371.114 415.156 378.723C400.679 383.093 385.107 392.446 371.251 394.166C344.668 397.467 325.524 374.729 299.439 375.249C287.688 375.483 282.452 376.806 271.16 379.883L263.447 375.186C262.882 374.731 262.694 374.55 262.062 374.205Z"/><path fill="#b01d1d" d="M530.845 499.547L531.222 499.436C531.537 499.521 531.852 499.605 532.166 499.69C536.771 507.102 551.179 525.672 555.736 531.3C545.161 532.903 529.959 536.262 519.438 538.689C515.149 536.965 509.585 535.257 505.127 533.754C493.845 529.838 483.61 518.3 474.76 510.334C480.492 509.765 488.543 508.208 494.343 507.22C506.419 505.162 519.182 503.191 530.845 499.547Z"/><path fill="#b01d1d" d="M426.426 305.667C438.506 304.736 443.046 305.212 453.58 311.434C450.766 312.093 441.501 315.254 439.638 315.304C430.856 315.541 427.871 314.541 419.144 316.515C401.71 320.458 387.355 331.14 369.386 331.824C357.223 332.287 347.849 330.313 336.551 326.028C309.93 315.932 294.388 315.15 267.87 325.686C260.323 328.521 252.54 330.682 244.612 332.144C252.849 322.212 258.635 320.922 270.008 316.643C321.638 297.217 327.462 325.297 369.92 322.786C390.438 321.573 406.711 308.717 426.426 305.667Z"/><path fill="#b01d1d" d="M295.144 385.208C313.115 384.301 324.447 392.256 339.811 399.137C363.859 409.908 382.563 403.189 404.982 392.82C427.192 382.547 440.137 383.581 462.419 393.237C457.654 393.735 452.857 394.524 448.12 395.268C446.354 395.712 439.177 395.906 437.032 395.94C429.341 396.062 423.65 396.67 416.185 398.602C401.315 402.421 388.505 412.722 373.311 415.264C364.087 416.76 354.014 415.413 345.496 411.555C332.819 405.814 320.987 398.192 306.963 396.003C302.376 395.287 297.129 395.483 292.892 393.426C289.504 391.781 286.106 389.13 283.022 386.897C287.705 385.972 290.395 385.563 295.144 385.208Z"/><path fill="#b01d1d" d="M559.135 537.532C568.949 537.073 585.756 539.838 596.623 540.492C601.33 555.581 610.008 574.889 616.111 589.697C605.75 585.283 591.067 579.82 581.452 574.946C575.298 566.23 564.813 547.411 559.135 537.532Z"/><path fill="#b01d1d" d="M425.765 286.573C427.299 286.763 433.103 292.87 434.641 294.384C408.648 296.51 394.103 311.129 368.908 312.724C351.856 313.804 342.749 309.018 327.299 303.865C310.674 298.32 296.897 298.749 280.114 302.9C277.604 303.619 275.076 304.538 272.601 305.39C275.782 301.931 282.158 295.098 285.844 292.321C322.715 284.528 335.797 305.982 369.827 304.217C389.116 303.217 406.22 291.62 425.765 286.573Z"/><path fill="#b01d1d" d="M261.741 383.488C264.123 383.996 288.903 400.041 293.947 402.484C283.48 404.276 273.262 407.728 262.79 409.398C259.128 409.982 255.925 409.129 252.363 408.389C241.206 405.971 227.686 402.725 216.82 399.463C229.858 394.066 247.774 388.793 261.741 383.488Z"/><path fill="#b01d1d" d="M495.089 394.632C498.052 395.797 521.335 414.831 526.75 418.626C512.734 420.234 506.834 421.391 493.004 419.329C489.381 418.867 482.088 418.012 478.905 417.024C472.862 415.147 462.869 405.776 458.359 401.14C465.023 400.869 488.854 396.699 495.089 394.632Z"/><path fill="#b01d1d" d="M307.541 271.573C317.735 272.882 327.94 276.497 337.421 280.02C358.286 287.774 381.219 286.627 401.063 276.532C404.301 274.885 407.836 273.278 411.261 271.964L415.899 278.339L408.054 281.75C378.589 294.477 362.736 299.278 331.914 286.361C322.054 282.229 308.986 280.417 298.225 280.528C301.044 278.388 304.943 274.2 307.541 271.573Z"/><path fill="#b01d1d" d="M669.146 480.912C679.435 485.649 690.573 492.375 700.883 497.41C705.833 499.828 710.595 502.898 715.826 504.726C711.215 506.575 706.099 508.343 701.392 510.165C699.605 510.786 697.718 511.335 695.903 511.892C683.796 507.757 668.921 501.052 656.732 496.213C660.904 491.14 665.042 486.04 669.146 480.912Z"/><path fill="#b01d1d" d="M594.109 416.37C595.407 416.795 604.307 422.403 605.94 423.395C614.981 428.894 623.808 434.514 633.067 439.681C628.607 441.248 619.938 443.28 615.109 444.553L608.102 446.387C597.458 440.506 586.653 434.921 575.698 429.639L594.109 416.37Z"/><path fill="#b01d1d" d="M323.805 256.449C335.464 261.736 349.677 266.267 362.498 266.529C372.635 266.736 387.586 264.971 396.279 259.335C398.238 261.098 400.201 263.017 402.12 264.836C400.076 266.002 397.821 267.127 395.724 268.223C366.097 281.598 345.459 272.546 317.357 262.74C319.735 260.164 321.16 258.735 323.805 256.449Z"/><path fill="#b01d1d" d="M461.734 573.469C464.585 573.284 470.554 573.908 473.764 574.102C480.962 574.535 488.163 574.909 495.368 575.223C500.766 578.818 512.914 589.633 518.738 594.258L518.325 594.847C510.362 595.593 502.388 596.216 494.406 596.716C484.042 589.999 473.178 580.94 461.734 573.469Z"/><path fill="#b01d1d" d="M559.536 555.123C560.748 555.657 564.765 562.758 565.758 564.398C547.406 564.655 530.697 573.672 513.076 579.665C510.493 577.424 507.584 575.122 504.925 572.932C525.832 570.241 538.729 559.866 559.536 555.123Z"/><path fill="#b01d1d" d="M337.883 242.821C352.364 248.768 366.64 249.727 381.718 245.465C384.062 247.732 386.649 250.014 389.072 252.219L384.402 253.682C366.512 258.355 348.795 256.831 332.094 248.824L337.883 242.821Z"/><path fill="#b01d1d" d="M171.609 401.339C174.145 398.702 176.673 396.323 179.335 393.813C187.274 397.16 191.72 400.576 201.18 403.726C212.034 407.341 224.22 409.198 234.501 412.753C241.774 414.539 233.592 414.966 231.449 415.012C216.609 416.788 201.988 410.711 188.363 405.953C183.057 404.1 177.08 402.645 171.609 401.339Z"/><path fill="#b01d1d" d="M234.501 412.753C241.774 414.539 233.592 414.966 231.449 415.012C233.291 413.517 234.138 414.469 234.501 412.753Z"/><path fill="#b01d1d" d="M479.236 312.133C487.338 315.406 495.26 319.025 503.418 322.307L504.137 324.43C498.979 324.334 489.651 326.929 485.008 326.252C476.479 325.009 465.784 321.573 457.965 317.887C461.927 316.616 466.287 315.154 470.281 314.161C471.686 313.804 473.094 313.462 474.506 313.135C476.075 312.764 477.652 312.43 479.236 312.133Z"/><path fill="#b01d1d" d="M204.371 369.385C221.401 376.483 236.185 378.494 254.595 375.787C256.115 376.201 256.232 376.23 257.619 376.924C238.183 386.708 219.554 384.484 200.836 374.043C201.884 372.511 203.223 370.866 204.371 369.385Z"/><path fill="#b01d1d" d="M536.984 389.595C539.509 389.121 543.076 393.276 545.184 395.001C542.052 395.891 538.916 396.704 535.744 397.443L532.259 398.113C528.127 398.936 518.409 400.53 514.712 399.13C511.359 396.87 508.531 394.891 505.315 392.418C518.194 393.318 524.481 392.634 536.984 389.595Z"/><path fill="#b01d1d" d="M358.677 223.049C360.787 224.693 370.645 234.576 373.863 237.486C369.244 237.989 366.12 238.182 361.426 238.103C358.965 237.984 357.629 237.825 355.249 237.575C352.679 237.295 350.127 236.866 347.607 236.289C347.302 236.212 346.996 236.134 346.69 236.057L345.804 235.848C350.128 231.544 354.444 227.474 358.677 223.049Z"/><path fill="#b01d1d" d="M192.843 380.869C200.564 385.845 210.526 389.017 219.415 390.996C216.612 391.874 214 392.675 211.121 393.344C209.498 393.837 207.907 394.431 206.282 394.917C198.348 392.026 193.955 390.33 186.143 386.845C188.416 384.898 190.65 382.906 192.843 380.869Z"/><path fill="#b01d1d" d="M554.071 402.621C556.034 403.964 558.448 406.932 559.975 408.78C550.833 409.908 541.753 412.272 532.747 413.237C530.215 411.628 528.741 410.355 526.504 408.359C530.121 407.852 533.429 407.237 537.004 406.594C539.011 406.249 541.008 405.849 542.993 405.394C546.689 404.538 550.442 403.412 554.071 402.621Z"/><path fill="#b01d1d" d="M262.062 374.205C262.694 374.55 262.882 374.731 263.447 375.186C261.51 375.674 259.45 376.598 257.619 376.924C256.232 376.23 256.115 376.201 254.595 375.787C257.094 375.27 259.571 374.722 262.062 374.205Z"/><path fill="#b01d1d" d="M503.418 322.307L505 322.903C507.329 323.774 505.306 324.067 504.137 324.43L503.418 322.307Z"/><path fill="white" d="M789.5 487.368C796.829 484.925 832.898 469.956 837.631 470.202C840.31 472.811 844.646 486.655 846.145 490.912C852.143 489.497 889.659 481.068 893.901 481.446C896.135 483.221 896.655 487.391 897.316 490.271C901.299 489.579 908.306 487.905 911.922 488.995C914.643 491.905 918.986 511.431 919.824 515.814C952.52 519.076 945.066 513.971 943.808 542.593C948.133 545.153 970.146 557.491 971.848 560.143C971.796 563.748 967.787 570.306 965.927 573.762C970.195 573.805 976.153 573.143 979.332 575.728C980.697 578.738 974.447 594.236 973.035 597.865C961.768 626.815 953.058 657.016 942.069 686.023C941.288 688.104 940.434 690.157 939.508 692.178C875.78 691.379 810.424 692.088 746.561 692.051L694.14 691.986C689.495 691.977 662.575 692.527 660.123 690.801C658.109 687.48 660.246 682.443 661.39 678.971C659.42 678.749 652.426 678.304 651.27 676.892C650.732 676.235 650.514 675.269 650.272 674.433C649.095 673.789 646.278 673.86 645.111 674.504C644.431 678.081 644.792 685.746 644.856 689.664C645.005 696.872 645.041 704.082 644.966 711.291C654.809 711.049 664.656 711.01 674.501 711.175C674.353 704.412 675.335 695.082 684.217 694.694C694.442 694.247 704.876 694.48 715.124 694.482L774.881 694.499L877.691 694.516C894.658 694.513 913.036 694.162 929.902 694.51C930.274 694.519 930.647 694.531 931.019 694.545C939.495 699.638 939.099 704.578 939.061 713.82C939.034 720.212 938.921 726.674 938.84 733.069L913.847 732.981C914.115 737.327 914.238 740.555 913.775 744.857C911.828 762.959 896.251 777.567 878.091 778.645C867.661 779.228 857.444 775.542 849.789 768.434C842.118 761.396 837.611 751.56 837.288 741.154C837.219 738.625 837.498 735.505 837.614 732.906C819.094 733.181 799.872 733.543 781.401 733.017C782.004 746.255 780.635 756.127 771.041 766.528C764.317 773.871 754.911 778.187 744.959 778.495C734.484 778.873 724.297 775.029 716.681 767.828C709.255 760.78 704.878 751.107 704.485 740.876C704.421 738.676 704.685 735.491 704.959 733.293C695.996 732.998 683.209 733.674 675.022 733.012C673.526 730.901 675.252 729.824 673.486 729.763C664.375 729.452 651.746 729.689 642.996 729.766C642.873 732.221 642.977 736.053 641.031 737.685C635.742 742.118 627.221 741.553 621.021 741.213C598.875 740.001 583.906 724.406 561.107 725.41C532.323 726.677 521.539 743.502 490.699 740.822C467.304 738.788 453.957 724.304 432.004 725.429C404.894 726.819 395.545 741.839 365.74 741.392C338.617 740.984 324.014 724.019 299.347 725.36C273.029 726.791 260.924 742.344 231.013 742.315C221.609 742.32 212.27 740.768 203.374 737.719C187.322 732.242 176.047 724.499 157.581 725.364C151.25 725.569 144.069 726.33 138.051 728.488C121.686 734.433 108.397 741.466 90.5326 741.622C82.5548 741.691 74.9703 739.225 82.2508 732.029C82.0208 732.256 104.804 730.321 108.89 728.924C121.554 724.591 133.375 718.675 146.506 716.454C183.552 709.118 200.307 734.749 235.262 732.376C263.088 730.487 277.362 713.326 306.999 715.751C331.414 717.749 344.351 732.721 369.379 731.589C395.169 730.422 408.939 714.317 436.016 715.491C459.71 716.519 474.513 732.529 498.034 731.492C524.665 730.318 536.883 714.192 565.737 715.639C587.713 716.742 597.825 727.401 616.374 730.937L616.352 722.123C596.862 718.852 582.233 706.816 564.495 706.565C535.647 706.156 522.556 725.054 490.476 722.343C465.384 720.222 453.047 704.656 429.068 706.89C403.928 709.233 393.167 723.466 365.615 722.695C358.019 722.508 350.492 721.208 343.273 718.839C326.77 713.412 317.191 705.842 297.941 706.943C282.241 707.841 273.252 713.868 259.115 718.746C249.654 721.947 239.726 723.546 229.74 723.476C202.655 723.276 185.669 707.366 159.786 706.674C133.364 706.182 113.079 725.441 86.0198 722.734C76.401 721.771 79.2161 714.519 82.1699 713.815C86.9948 712.663 98.2723 713.04 104.444 711.41C122.702 706.588 138.397 696.788 157.801 696.697C187.742 696.041 200.44 713.528 231.15 713.621C259.971 713.708 274.835 696.877 301.448 696.836C329.061 696.794 345.023 716.254 374.91 712.419C398.187 709.431 411.851 695.813 435.528 696.794C461.161 697.856 476.205 715.812 502.921 712.382C513.679 711.001 519.344 708.929 529.263 704.636C552.511 694.576 570.987 693.986 594.164 704.544C601.915 708.075 607.624 710.464 616.192 712.241C617.32 709.487 617.415 709.236 619.243 706.991L619.711 706.408C619.807 706.293 619.904 706.178 620 706.064C619.673 705.048 619.755 705.057 620.009 703.923C596.171 701.402 585.501 687.041 560.069 688.295C532.91 689.634 521.971 706.422 491.863 703.906C466.695 701.802 456.146 687.183 431.118 688.513C404.288 689.939 394.28 704.885 365.243 704.104C337.955 703.371 326.593 687.687 300.326 688.132C284.332 688.404 274.514 694.831 260.258 699.946C249.874 703.786 238.81 705.444 227.756 704.818C219.32 704.422 211.385 703.3 203.409 700.475C190.843 696.023 180.609 689.9 167.082 688.638C158.147 687.844 149.142 688.587 140.458 690.837C135.171 692.223 129.886 694.41 124.433 696.691C111.559 702.077 97.2212 705.598 83.1522 704.132C81.9581 703.865 80.3681 702.3 80.0251 701.144C77.348 692.121 88.3185 694.82 93.1068 694.469C96.9184 694.19 99.9638 693.852 103.272 693.18C120.277 689.725 134.999 679.489 152.672 678.6C178.346 676.318 188.863 685.861 211.805 692.724C218.89 694.844 229.448 695.249 236.882 694.791C263.656 693.141 277.698 676.166 306.112 678.506C331.187 680.572 344.704 695.899 369.985 694.505C396.933 693.018 407.867 676.836 436.532 678.486C461.909 679.947 472.836 694.816 497.612 694.072C524.759 693.258 536.489 677.447 564.731 678.354C594.067 679.297 606.047 699.807 635.723 692.692L635.692 684.511C630.231 685.191 625.475 685.757 619.962 685.304C600.489 683.701 586.751 671.142 567.07 669.658C547.732 668.2 538.894 674.88 522.182 680.379C515.083 682.688 507.713 684.058 500.259 684.452C491.633 684.939 482.991 683.867 474.745 681.287C455.356 675.08 443.879 665.228 420.112 671.132C412.848 672.936 407.146 675.307 400.489 678.15C376.185 688.531 355.271 688.068 331.472 676.753C322.728 672.998 310.294 668.545 300.566 669.45C270.907 672.207 256.728 688.326 224.415 685.849C217.071 685.328 209.823 683.882 202.841 681.545C185.599 675.754 175.081 668.243 155.25 669.608C132.903 670.793 114.579 685.631 91.776 685.697C86.3805 686.324 76.1774 685.716 80.5475 677.457C81.811 675.069 99.0673 675.551 103.426 674.378C120.937 669.666 132.906 662.46 151.137 659.977C183.253 655.602 205.075 679.594 237.029 675.932C264.037 673.771 279.166 657.846 305.586 659.779C330.73 661.619 343.817 676.849 370.491 675.64C395.963 674.486 409.651 658.419 435.373 659.561C460.078 660.657 473.519 675.521 499.501 674.669C524.251 673.857 538.898 658.942 563.761 659.524C583.722 659.991 597.583 670.651 616.238 674.8C621.711 676.016 629.776 675.575 635.534 675.371C635.62 662.883 643.021 665.624 652.672 666.659C656.631 641.218 661.625 617.649 666.781 592.459C654.797 592.916 649.943 587.182 657.662 577.117C661.323 572.345 679.106 573.869 685.146 573.952C688.268 565.626 694.065 551.284 698.026 543.518C703.504 543.941 708.986 544.315 714.471 544.642C718.663 537.825 722.624 528.107 727.528 521.782C729.641 519.248 732.256 522.218 734.744 520.807C748.717 512.883 764.193 505.952 777.855 497.616C777.921 497.165 777.991 496.714 778.064 496.263C778.641 492.705 778.521 492.545 781.417 490.46L781.501 488.944C784.49 488.624 784.831 486.618 787.126 483.981C785.987 488.758 784.911 487.024 789.5 487.368Z"/><path fill="#b01d1d" d="M620.009 703.923C624.373 704.019 628.926 704.239 633.243 703.623C633.832 703.539 635.458 703.314 635.862 703.792C637.554 705.794 633.566 705.521 633.249 705.54C628.706 705.811 624.445 705.062 620 706.064C619.673 705.048 619.755 705.057 620.009 703.923Z"/><path fill="#b01d1d" d="M781.501 488.944C784.49 488.624 784.831 486.618 787.126 483.981C785.987 488.758 784.911 487.024 789.5 487.368L787.561 488.168C785.845 488.868 783.162 489.85 781.417 490.46L781.501 488.944Z"/><path fill="#b01d1d" d="M694.784 592.436L874.21 592.55C903.236 592.548 936.226 591.794 964.873 592.91C955.154 621.533 944.32 650.154 934.542 678.876L933.09 683.019L669.286 683.129L686.479 622.641C689.058 613.552 692.927 601.371 694.784 592.436Z"/><path fill="#b01d1d" d="M741.343 715.059C755.036 713.842 767.121 723.958 768.335 737.651C769.548 751.343 759.43 763.426 745.737 764.637C732.048 765.847 719.97 755.733 718.756 742.044C717.543 728.356 727.655 716.275 741.343 715.059Z"/><path fill="white" d="M742.573 719.373C753.795 718.913 763.299 727.565 763.892 738.781C764.485 749.997 755.947 759.603 744.739 760.33C737.369 760.808 730.312 757.286 726.262 751.111C722.212 744.935 721.795 737.058 725.171 730.49C728.547 723.921 735.194 719.675 742.573 719.373Z"/><path fill="#b01d1d" d="M872.845 715.148C886.534 713.426 899.008 723.175 900.644 736.875C902.28 750.574 892.451 762.986 878.742 764.535C865.154 766.071 852.876 756.349 851.255 742.771C849.634 729.194 859.278 716.855 872.845 715.148Z"/><path fill="white" d="M873.674 719.41C884.874 718.105 895.029 726.079 896.417 737.27C897.804 748.46 889.904 758.673 878.724 760.142C867.428 761.626 857.086 753.626 855.684 742.32C854.282 731.014 862.358 720.73 873.674 719.41Z"/><path fill="#b01d1d" d="M832.923 479.007L833.418 479.118C834.597 480.446 839.723 493.557 840.766 496.105C824.403 501.954 808.073 508.472 791.723 514.523L791.02 514.529C789.93 513.101 785.631 500.082 784.642 497.394C799.704 492.574 817.767 484.802 832.923 479.007Z"/><path fill="#b01d1d" d="M817.234 549.294C832.989 552.326 853.186 553.061 867.772 556.446C866.337 562.482 865.54 567.743 864.544 573.889C859.344 574.962 821.707 569.236 814.782 567.839C815.137 562.659 816.542 554.732 817.234 549.294Z"/><path fill="#b01d1d" d="M763.498 543.492L782.765 559.789C776.376 564.366 770.183 569.042 763.869 573.694C760.543 573.729 757.181 573.664 753.849 573.657C750.293 573.696 746.794 573.846 743.24 573.761C739.922 571.069 737.359 568.025 734.104 565.19C743.697 558.407 753.752 550.12 763.498 543.492Z"/><path fill="#b01d1d" d="M887.262 490.164C890.257 489.528 889.836 490.494 890.422 493.502C890.97 496.245 891.472 498.998 891.928 501.758L892.404 504.507C892.711 506.475 893.074 508.433 893.491 510.381C890.924 510.963 888.343 511.481 885.747 511.912L862.996 515.917C861.374 516.21 859.842 516.549 858.23 516.849C856.038 517.242 854.754 518.303 854.481 516.023L853.056 503.246C852.811 501.149 852.536 499.215 852.321 497.098L861.755 495.103L864.006 494.626L868.755 493.613L871.255 493.094L873.754 492.589C875.403 492.27 877.109 491.919 878.754 491.619C881.581 491.08 884.417 490.595 887.262 490.164Z"/><path fill="#b01d1d" d="M844.292 502.485C846.714 502.772 846.486 515.048 846.974 517.657C848.204 524.243 848.5 523.789 854.297 524.88C852.79 526.214 851.641 527.188 850.186 528.636C838.29 529.134 826.05 528.812 814.075 529.25L803.529 529.554C807.106 524.094 810.111 520.671 812.572 514.426C823.078 510.905 833.92 506.518 844.292 502.485Z"/><path fill="#b01d1d" d="M897.613 530.016C906.518 537.587 918.81 543.011 928.597 549.411C922.915 554.55 917.587 558.544 911.755 563.377C911.435 563.659 910.183 564.716 909.971 564.609C904.057 561.628 887.221 549.881 882.488 546.872C888.67 540.733 892.094 536.544 897.613 530.016Z"/><path fill="#b01d1d" d="M857.92 536.505C861.094 538.917 868.514 543.546 870.995 545.981C877.303 552.173 881.375 555.131 889.011 559.912C895.583 564.026 901.99 569.162 908.934 572.912C906.788 573.886 902.041 573.322 898.884 573.573C890.155 573.689 880.841 573.454 872.039 573.443L872.987 567.748C873.122 566.951 873.28 566.271 873.419 565.495L874.107 561.756C876.751 547.668 872.584 549.07 859.112 547.173C858.76 543.621 858.292 540.06 857.92 536.505Z"/><path fill="#b01d1d" d="M662.206 583.673C675.288 583.154 690.712 583.526 703.939 583.534L776.49 583.518C838.361 583.494 900.274 583.449 962.144 583.846C963.72 583.856 965.378 583.744 966.346 584.756L965.872 585.499L666.704 585.159C664.784 585.141 663.219 585.307 661.749 584.354L662.206 583.673Z"/><path fill="#b01d1d" d="M676.007 592.243L686.216 592.258C683.44 599.921 680.671 610.468 678.413 618.442L665.785 663.398C665.256 665.723 665.089 667.323 663.763 669.3L662.967 669.253C661.802 666.248 665.763 650.024 666.465 645.602C669.297 627.775 673.035 610.064 676.007 592.243Z"/><path fill="#b01d1d" d="M779.743 504.883C781.933 507.379 783.758 518.908 786.434 522.279C786.568 522.449 787.204 523.669 787.247 523.749C792.227 522.116 796.87 520.271 801.821 518.631C798.536 523.92 793.695 531.027 791.08 536.278C790.941 536.535 790.068 538.603 789.709 538.473C782.458 535.856 774.345 531.171 768.01 526.819C771.771 520.409 776.523 511.488 779.743 504.883Z"/><path fill="#b01d1d" d="M738.246 527.557C748.974 521.777 757.977 516.84 768.469 510.71C766.676 514.06 758.579 525.722 758.542 529.99C758.531 531.183 763.083 533.599 764.494 534.335C763.88 534.57 763.781 534.644 763.192 534.984C757.043 538.665 751.906 542.749 745.967 546.751C742.986 539.927 740.92 534.351 738.246 527.557Z"/><path fill="#b01d1d" d="M891.823 518.623C894.915 518.035 895.468 521.296 895.454 521.312C892.446 524.855 879.9 539.08 877.491 542.048C875.108 540.259 872.745 538.444 870.403 536.603C866.84 533.962 863.384 530.947 859.522 528.807C859.621 528.605 859.721 528.404 859.821 528.203L862.129 523.716C863.569 523.501 864.553 523.362 866.004 523.102C868.914 522.558 871.83 522.05 874.753 521.581C875.251 521.512 875.748 521.443 876.246 521.374L881.003 520.594C884.71 520.02 888.154 519.325 891.823 518.623Z"/><path fill="#b01d1d" d="M940.46 549.926C943.651 550.913 959.677 560.601 963.769 562.935C961.731 566.498 959.757 570.341 957.47 573.71C957.187 574.128 953.738 573.846 953.222 573.835C952.137 573.818 945.291 574.015 944.983 573.454C945.147 572.671 947.053 571.492 946.75 571.151C942.632 566.507 937.039 560.679 931.961 557.185L931.24 556.672C934.605 554.401 937.252 552.33 940.46 549.926Z"/><path fill="#b01d1d" d="M905.011 521.347C911.72 522.051 918.429 523.515 925.251 523.958C929.338 524.224 934.091 524.963 938.178 525.6C937.392 531.699 936.714 537.759 935.943 543.843C934.503 545.43 925.931 538.394 924.029 537.387C917.223 533.782 910.589 529.906 904.134 525.702C903.599 525.353 904.9 521.755 905.011 521.347Z"/><path fill="#b01d1d" d="M847.863 536.731C848.296 536.694 850.174 536.47 850.361 536.752C851.086 537.844 851.57 545.149 851.654 546.225C843.568 545.332 834.743 544.407 826.746 543.091L823.995 542.611C823.499 542.525 823.002 542.439 822.506 542.353C819.997 541.837 817.494 541.289 814.999 540.709C813.325 541.317 813.785 541.69 812.639 542.81C811.949 543.481 809.087 542.503 808.718 542.088C808.21 541.517 809.084 537.244 809.406 537.241C819.949 537.151 837.856 537.099 847.863 536.731Z"/><path fill="#b01d1d" d="M702.371 551.862C709.172 552.805 715.316 553.296 722.066 553.999C715.75 559.317 710.366 561.177 704.813 566.165C704.909 569.201 705.647 569.493 707.298 572.253C702.738 572.025 698.472 572.008 693.92 571.991C696.212 566.412 699.838 556.817 702.371 551.862Z"/><path fill="#b01d1d" d="M801.274 532.804C801.345 533.473 802.247 538.842 802.247 538.812C798.916 544.863 796.437 550.82 792.736 556.747C786.258 552.992 775.463 544.08 769.569 539.087C770.112 538.514 770.471 538.141 771.057 537.613C778.746 541.462 783.131 544.783 791.614 547.471C795.057 543.376 798.333 537.484 801.274 532.804Z"/><path fill="#b01d1d" d="M624.547 713.529L635.174 713.584C635.053 719.567 635.149 725.452 635.054 731.385C631.255 731.173 628.106 731.176 624.331 731.196C624.266 726.335 624.03 718.159 624.547 713.529Z"/><path fill="#b01d1d" d="M788.436 565.107C794.335 566.195 800.316 567.356 806.216 568.259C806.775 568.345 807.409 572.852 810.484 572.544C810.645 572.528 813.089 573.416 813.34 573.507L801.671 573.563C793.547 573.516 785.422 573.527 777.299 573.599C781.242 570.272 783.912 567.821 788.436 565.107Z"/><path fill="#b01d1d" d="M905.893 496.721C906.777 496.637 907.195 496.516 907.446 497.483C908.936 503.216 910.536 508.916 911.909 514.68C909.874 514.406 908.172 514.03 906.122 514.025C904.357 513.957 901.892 514.613 901.499 512.778L901.118 510.997C900.204 506.538 899.345 502.067 898.393 497.615C900.899 497.371 903.399 497.073 905.893 496.721Z"/><path fill="#b01d1d" d="M911.164 573.004C916.144 569.283 920.639 565.357 925.415 561.481C929.022 564.469 932.216 567.195 935.708 570.313L933.007 571.066C926.309 573.001 928.635 573.68 921.028 573.566C918.301 573.355 912.997 573.739 911.164 573.004Z"/><path fill="#b01d1d" d="M730.75 530.37C732.302 532.092 736.231 545.118 737.222 548.132C735.265 547.737 733.507 547.437 731.53 547.141C728.521 546.731 725.578 546.352 722.585 545.851C725.282 540.514 727.751 535.584 730.75 530.37Z"/><path fill="#b01d1d" d="M727.339 560.748C727.187 561.48 727.029 561.991 726.818 562.718C723.848 566.774 729.714 570.625 732.615 573.622C727.445 573.678 722.274 573.669 717.104 573.595C715.631 571.518 715.135 570.934 713.412 569.061C717.989 566.803 722.922 563.415 727.339 560.748Z"/><path fill="#b01d1d" d="M805.317 549.8C806.536 550.002 809.335 549.837 809.97 550.062C810.31 550.815 808.456 559.69 807.847 560.302C807.449 560.411 806.273 560.077 805.883 559.993C803.842 559.66 801.906 559.45 799.873 559.08C801.983 555.746 803.525 553.316 805.317 549.8Z"/><path fill="#b01d1d" d="M764.494 534.335C766.207 535.228 769.638 536.521 771.057 537.613C770.471 538.141 770.112 538.514 769.569 539.087C766.691 537.145 766.929 536.501 763.192 534.984C763.781 534.644 763.88 534.57 764.494 534.335Z"/><path fill="#b01d1d" d="M908.934 572.912C909.698 572.928 910.402 572.964 911.164 573.004C912.997 573.739 918.301 573.355 921.028 573.566C916.831 574.162 903.182 574.092 898.884 573.573C902.041 573.322 906.788 573.886 908.934 572.912Z"/><path fill="#b01d1d" d="M727.339 560.748C727.905 560.119 729.202 558.93 730.131 559.082C730.422 559.627 727.389 562.182 726.818 562.718C727.029 561.991 727.187 561.48 727.339 560.748Z"/><path fill="white" d="M558.604 622.234C578.868 622.306 588.227 627.683 606.663 635.015C614.89 638.287 622.471 638.816 631.219 638.222C633.401 638.074 640.244 637.818 641.591 639.688C645.989 645.798 637.076 648.061 632.621 648.066C606.476 651.745 588.9 633.453 563.61 632.304C538.34 631.156 523.405 646.722 498.128 646.876C490.369 646.97 482.638 645.934 475.177 643.801C457.869 638.824 446.658 630.794 426.734 633.178C403.464 635.962 393.808 647.929 368.912 648.196C340.004 648.506 324.748 631.613 296.746 632.985C282.479 633.685 271.529 640.157 258.467 644.863C248.318 648.52 237.741 649.789 226.963 649.463C218.977 649.255 211.069 647.84 203.507 645.267C188.809 640.274 179.434 633.86 162.924 633.368C142.523 633.115 136.149 637.012 117 644.237C106.819 647.546 92.8682 651.279 82.367 648.548C78.6664 647.585 78.9995 639.83 83.659 639.605C94.3294 639.091 104.919 638.434 115.074 634.659C128.137 629.447 138.525 625.075 152.592 623.404C174.478 620.804 188.488 630.789 208.005 636.425C216.947 638.914 226.243 639.886 235.507 639.303C262.655 637.485 278.865 621.022 304.876 622.916C328.847 624.661 344.593 639.437 370.442 638.298C396.186 637.163 409.216 621.3 435.553 622.693C460.609 624.019 473.953 637.996 500.089 636.706C524.324 635.511 534.149 623.336 558.604 622.234Z"/><path fill="white" d="M557.093 603.701C583.248 601.597 595.874 616.265 619.869 621.687C624.678 622.773 639.219 619.174 641.307 622.128C646.183 630.491 636.621 630.648 631.805 631.354C605.927 635.147 586.928 613.06 561.744 613.507C538.498 613.92 523.491 627.034 499.402 628.054C473.72 629.141 458.728 615.445 434.131 614.436C412.31 613.93 395.927 628.769 372.726 630.514C342.974 632.752 331.896 617.939 305.009 615.109C288.721 613.394 273.941 620.78 259.343 626.428C249.179 630.361 240.182 631.341 229.38 631.684C203.948 632.493 191.841 619.147 167.295 615.545C137.449 614.152 133.782 622.044 106.934 629.623C103.18 630.544 84.4439 634.106 81.77 630.836C73.5202 620.748 90.2095 622.356 91.9775 622.292C96.2518 622.102 100.499 621.52 104.667 620.551C121.113 616.827 129.882 608.102 149.802 605.724C160.428 604.472 171.197 605.377 181.465 608.383C201.757 614.522 210.368 623.414 235.516 621.673C263.005 619.77 275.992 603.437 304.157 605.115C329.648 606.633 344.279 622.159 369.499 620.889C395.596 619.574 407.726 603.694 435.84 604.503C457.986 604.314 476.709 619.834 498.885 618.611C520.235 617.432 535.308 605.985 557.093 603.701Z"/><path fill="white" d="M154.356 641.205C180.46 637.636 200.8 657.435 229.238 657.903C239.162 658.062 249.037 656.481 258.416 653.232C272.201 648.366 280.353 642.626 295.95 641.18C324.024 638.578 339.218 656.303 367.06 656.829C393.834 657.335 407.217 640.961 433.001 641.012C458.44 641.062 472.247 656.187 498.503 655.449C526.466 654.662 538.665 638.725 567.368 641.097C589.66 642.939 600.974 654.916 622.04 656.644C626.7 656.636 631.126 656.209 635.849 655.587C641.715 654.814 644.117 659.525 640.356 663.712C638.416 665.871 633.277 665.968 630.27 666.34C607.036 669.212 589.533 653.128 567.242 650.691C550.505 648.178 532.949 658.104 517.831 662.541C511.149 664.496 504.223 665.497 497.261 665.512C490.312 665.534 482.603 664.729 476 662.691C460.59 657.936 446.034 649.189 429.249 650.926C405.795 653.354 395.239 666.085 370.273 667.04C340.984 668.16 328.218 651.277 300.686 650.995C285.489 650.839 274.752 657.478 261.258 662.422C248.833 666.863 235.588 668.539 222.448 667.332C198.141 665.151 182.025 650.035 157.216 650.864C130.977 651.739 111.486 669.901 84.5282 667.02C81.2621 666.671 78.6745 663.503 79.459 660.166C83.324 655.486 94.6375 657.822 101.534 656.306C122.61 651.673 131.882 643.38 154.356 641.205Z"/><path fill="white" d="M157.245 733.713C184.965 732.452 199.407 749.452 225.859 750.5C236.162 750.908 246.733 749.933 256.466 746.449C273.623 740.307 282.073 734.346 301.019 734.046C325.604 733.658 337.049 747.527 361.321 749.842C390.093 752.586 402.282 736.14 428.771 734.129C459.854 731.768 476.655 756.564 509.637 748.718C521.389 745.922 527.568 742.191 538.386 738.128C555.019 731.881 574.09 732.83 590.154 740.363C597.639 743.872 607.191 747.929 615.397 749.251C619.893 749.956 624.45 750.183 628.994 749.929C632.491 749.761 638.171 748.114 640.165 749.059C641.656 750.747 642.73 752.068 642.834 754.364C641.683 758.446 635.655 758.971 632.088 759.54C606.229 763.67 589.03 745.207 563.875 743.827C542.148 742.469 526.181 757.285 503.105 759.755C472.856 762.993 460.069 743.992 433.639 743.604C408.741 743.237 394.794 760.413 366.909 760.269C339.866 760.129 329.329 745.853 305.263 743.844C280.138 741.746 264.561 758.853 237.062 760.491C226.903 761.175 216.703 760.08 206.921 757.255C184.506 750.581 169.534 738.648 143.717 745.336C123.112 750.674 103.8 764.495 81.9498 758.945C80.6835 758.623 78.1833 753.335 80.2307 752.157C83.2319 749.316 87.0134 750.097 90.819 749.855C106.535 750.436 119.961 743.239 134.376 738.078C141.994 735.35 149.019 734.283 157.245 733.713Z"/><path fill="white" d="M155.79 752.208C172.759 750.282 189.193 758.994 204.523 764.447C211.857 767.056 221.957 768.778 229.738 768.893C239.738 769.02 249.68 767.35 259.089 763.962C272.901 758.965 279.468 754.365 294.882 752.56C324.09 749.14 338.221 768.342 367.018 768.513C393.893 768.672 406.395 752.326 433.034 752.324C456.555 752.322 468.157 766.095 490.936 768.206C519.375 770.842 533.949 752.294 562.153 752.224C586.004 752.165 595.5 765.038 618.137 768.173C625.034 769.303 631.697 767.973 638.495 767.204C643.217 766.67 643.891 773.098 640.329 775.472C637.196 777.56 634.538 777.28 631.123 777.824C607.46 781.592 589.868 765.292 567.622 762.078C553.223 759.996 537.744 766.721 525.139 772.227C499.466 783.441 478.256 777.801 454.158 766.278C432.845 756.086 414.846 764.615 394.47 772.941C378.243 779.654 360.133 780.263 343.491 774.656C339.53 773.339 331.207 769.77 327.385 768.057C305.008 757.134 286.358 762.536 265.121 771.964C240.107 783.07 210.323 779.47 186.311 767.732C171.894 760.685 152.86 759.958 137.796 765.412C122.572 770.925 107.065 778.634 90.2812 778.441C85.0387 778.405 81.255 779.113 79.37 773.311C80.1263 767.736 88.2388 768.155 92.6271 768.214C107.056 768.408 119.048 762.228 132.189 757.189C139.605 754.346 147.686 752.865 155.79 752.208Z"/><path fill="white" d="M637.344 395.916C640.644 395.843 650.434 397.026 654.5 397.42C664.11 398.349 676.155 398.824 685.485 400.509C692.052 402.671 698.706 406.266 704.929 409.219C708.478 410.902 717.326 414.086 719.032 417.152C718.995 420.149 707.801 435.902 705.592 439.249C703.277 442.827 698.571 451.28 694.811 452.276C690.999 450.237 671.916 430.622 667.801 426.362C658.554 416.789 646.148 405.63 637.344 395.916Z"/><path fill="#b01d1d" d="M657.838 405.485C664.565 406.354 679.03 406.772 684.533 408.596C691.837 411.017 702.132 416.542 710.232 419.446C706.967 423.782 704.207 427.781 701.176 432.26C698.93 435.5 696.832 439.062 694.768 442.441C682.583 429.718 669.872 417.987 657.838 405.485Z"/><path fill="white" d="M578.201 343.166C583.435 341.822 596.131 348.538 602.017 349.663C605.259 350.283 614.095 352.772 616.326 355.161C617.4 359.428 598.963 389.65 594.796 391.838C591.872 391.301 581.989 382.296 578.661 379.554C570.875 373.008 563.512 365.861 553.905 362.164C544.34 358.484 534.747 354.866 525.214 351.105C542.227 348.109 560.823 345.98 578.201 343.166Z"/><path fill="#b01d1d" d="M577.928 351.202C583.01 350.599 595.528 356.137 602.007 357.841L602.993 358.091L607.261 359.239C603.008 366.814 598.104 374.584 593.722 382.244C592.23 380.9 590.829 379.587 589.25 378.345C581.758 371.837 573.686 365.065 565.981 358.764C564.165 357.279 558.947 355.688 556.635 354.537L555.182 353.809C563.179 353.217 570.024 352.251 577.928 351.202Z"/><path fill="white" d="M501.37 266.689C502.529 266.53 504.063 266.304 505.104 266.842C511.382 270.081 517.927 274.989 523.668 279.064C533.515 286.009 543.303 293.037 553.033 300.146C537.043 299.242 519.658 298.275 503.748 296.577C497.404 296.297 485.945 295.959 480.452 293.37C468.889 287.92 457.835 280.546 446.283 274.927C464.182 272.558 483.25 269.262 501.37 266.689Z"/><path fill="#b01d1d" d="M502.2 274.717C504.032 274.556 523.358 288.862 525.396 290.844C516.795 289.433 506.309 288.558 497.598 287.905C483.479 286.831 483.68 286.502 470.932 279.228C478.38 277.563 494.141 275.82 502.2 274.717Z"/><path fill="white" d="M765.619 452.035C776.329 453.192 787.567 455.215 798.29 456.681C800.136 456.934 801.116 457.862 802.015 459.386C802.241 463.753 790.387 479.274 787.126 483.981C784.831 486.618 784.49 488.624 781.501 488.944C778.747 487.955 765.992 485.376 761.749 484.277C759.51 486.158 757.281 488.052 755.063 489.957C746.049 487.376 737.058 485.466 727.948 483.261C733.689 477.567 742.226 471.097 748.557 465.679C752.524 462.286 761.472 454.505 765.619 452.035Z"/><path fill="#b01d1d" d="M766.951 459.885C768.809 460.059 770.645 460.406 772.497 460.636C777.314 461.381 782.15 461.993 787.001 462.472C788.895 462.663 790.81 463.013 792.721 463.272C788.006 468.835 784.341 474.803 780.07 480.575L774.507 479.373C772.368 478.898 770.239 478.381 768.121 477.822C765.477 477.021 762.844 476.579 760.127 476.169C757.653 477.828 755.609 479.539 753.184 481.207C749.585 480.761 747.251 480.284 743.758 479.645C750.295 473.686 759.922 465.757 766.951 459.885Z"/></svg>