<?xml version="1.0" encoding="UTF-8"?>
<svg id="Outline" xmlns="http://www.w3.org/2000/svg" version="1.1" viewBox="0 0 64 64">
  <path d="M46.59998,48.70001c2.17004-2.71002,3.40002-6.13,3.40002-9.64001v-1.06c0-.54999-.45001-1-1-1h-3v-3c0-1.29999-.84003-2.40002-2-2.82001V13.96997c1.21002-.90997,2-2.33997,2-3.96997v-2c0-.54999-.45001-1-1-1h-8c-.54999,0-1,.45001-1,1v2c0,1.63.78998,3.06,2,3.96997v8.03003c0,.54999.45001,1,1,1s1-.45001,1-1v-7.10004c.32001.06.65997.10004,1,.10004s.67999-.04004,1-.10004v16.10004h-2v-5c0-.54999-.45001-1-1-1s-1,.45001-1,1v5.17999c-1.15997.41998-2,1.52002-2,2.82001v3h-3c-.54999,0-1,.45001-1,1v1.06c0,3.31,1.06,6.48999,3,9.13-1.21997.12-2.40002.29999-3.53998.51996-2.66003-2.35999-6.42999-3.70996-10.46002-3.70996-7.71997,0-14,4.92999-14,11,0,.54999.45001,1,1,1h39c.54999,0,1-.45001,1-1s-.45001-1-1-1h-23.72998c.87-1.71002,3.90997-3.34003,8.10999-4.23999,2.34998-.51001,4.91998-.76001,7.62-.76001,8.33002,0,14.41998,2.46997,15.72998,5h-3.72998c-.54999,0-1,.45001-1,1s.45001,1,1,1h5c.54999,0,1-.45001,1-1,0-3.34003-4.15002-6.07001-10.40002-7.29999ZM21.14001,55h-12.06c.65997-4.48999,5.75-8,11.91998-8,2.97998,0,5.78003.82996,7.96997,2.29999-4.41998,1.27997-7.21997,3.31-7.82996,5.70001ZM41,13c-1.65002,0-3-1.35004-3-3v-1h6v1c0,1.64996-1.34998,3-3,3ZM38,34c0-.54999.45001-1,1-1h4c.54999,0,1,.45001,1,1v3h-6v-3ZM39,48c-.52002,0-1.03998.01996-1.54999.03998-2.22003-2.47998-3.45001-5.64996-3.45001-8.97998v-.06h14v.06c0,3.44-1.35999,6.78998-3.72998,9.26996-1.65002-.20996-3.42004-.32996-5.27002-.32996Z" fill="#000" stroke-width="0"/>
</svg>