<?xml version="1.0" encoding="utf-8" ?><svg xmlns="http://www.w3.org/2000/svg" xmlns:xlink="http://www.w3.org/1999/xlink" width="1024" height="1024" viewBox="0 0 1024 1024"><path fill="white" d="M309.814 362.621C317.227 362.61 337.285 365.575 345.488 366.529C359.897 368.201 374.29 370.002 388.666 371.931C397.161 372.996 405.67 373.977 414.154 375.131C422.463 376.262 424.018 380.943 425.648 388.232C434.049 389.785 443.808 390.836 452.391 392.069L505.264 399.716L647.782 421.181L696.111 428.925C705.801 430.425 725.04 432.026 733.687 436.828C738.838 439.689 742.414 453.015 744.467 459.085C746.948 466.379 749.493 473.652 752.101 480.902C755.45 490.288 759.712 500.233 762.403 509.662C764.08 519.477 750.895 527.16 745.047 532.168C730.625 544.26 715.518 556.393 700.929 568.188C684.849 581.189 689.997 586.015 689.053 604.524C688.402 617.302 692.113 634.774 683.837 645.161C679.085 651.126 672.373 651.786 665.367 652.393C657.392 686.577 630.435 715.142 595.236 721.047C574.885 724.457 554.016 719.57 537.294 707.48C519.172 694.69 507.064 675.051 503.776 653.115L388.106 653.089C387.045 658.421 386.25 661.853 384.705 667.122C374.975 697.972 350.376 718.773 317.881 721.387C297.963 722.905 278.262 716.418 263.142 703.363C248.242 690.701 238.977 672.642 237.383 653.153C228.798 653.143 202.543 654.837 196.355 651.183C192.944 649.169 190.456 645.396 189.508 641.606C187.482 633.507 188.765 617.996 188.821 609.24C188.932 592.055 187.464 573.48 190.102 556.577C191.118 550.064 193.061 543.726 195.334 537.548C200.28 524.109 207.136 510.977 213.039 497.906C217.475 488.084 221.32 476.854 227.049 467.781C231.185 461.23 237.389 456.625 244.993 454.972C254.14 452.983 265.198 454.275 274.556 454.312L327.513 454.573L367.004 454.546C374.471 454.533 388.834 453.325 395.368 456.935C400.039 459.517 402.268 466.638 403.219 471.727C404.733 479.824 406.446 488.084 408.164 496.243C413.022 518.618 417.743 541.022 422.325 563.455C432.922 564.589 446.825 564.997 457.678 565.574L418.095 457.336C412.512 441.881 404.089 414.867 397.168 400.73C387.783 399.867 308.383 390.926 303.523 388.149C300.504 386.423 298.546 383.304 297.657 380.002C296.769 376.703 296.92 372.837 298.696 369.85C301.143 365.735 305.334 363.698 309.814 362.621Z"/><path fill="#C00" d="M433.952 418.204C442.046 419.033 452.184 420.84 460.466 421.992C480.908 424.681 501.321 427.589 521.701 430.715L716.044 459.614C719.996 472.969 728.059 493.556 732.878 507.084C725.343 513.173 717.137 521.374 709.808 528.087C704.987 532.537 692.255 545.14 687.236 548.273C674.876 548.765 661.43 548.394 648.904 548.671L482.93 551.164L459.789 487.941C451.591 465.244 443.005 440.559 433.952 418.204Z"/><path fill="#C00" d="M315.686 480.922C334.339 481.096 352.989 481.476 371.634 482.062C371.614 487.37 371.792 492.929 372.007 498.248C373.426 533.267 373.093 568.98 375.406 603.914C371.203 598.765 367.163 593.836 362.196 589.392C336.585 566.476 302.635 564.637 273.432 581.112C257.578 591.886 248.01 602.909 241.17 620.947C234.148 620.843 227.125 620.841 220.103 620.941C220.374 597.353 218.194 569.843 224.19 547.293C244.074 547.986 264.462 547.233 284.274 547.49C315.694 547.898 315.694 530.879 315.627 506.174C315.565 497.757 315.585 489.339 315.686 480.922Z"/><path fill="#C00" d="M577.66 584.52C607.614 581.616 634.282 603.464 637.33 633.402C640.379 663.341 618.66 690.115 588.736 693.308C558.607 696.522 531.61 674.622 528.541 644.478C525.472 614.334 547.502 587.443 577.66 584.52Z"/><path fill="white" d="M578.276 613.339C593.161 610.851 607.218 620.981 609.568 635.888C611.919 650.795 601.661 664.758 586.733 666.972C571.997 669.157 558.253 659.06 555.932 644.345C553.612 629.63 563.583 615.794 578.276 613.339Z"/><path fill="#C00" d="M308.82 600.999C333.698 598.775 355.633 617.225 357.705 642.117C359.776 667.009 341.192 688.831 316.288 690.749C291.599 692.651 270.007 674.262 267.953 649.586C265.9 624.909 284.156 603.204 308.82 600.999Z"/><path fill="#C00" d="M263.761 481.169C276.816 480.559 292.787 480.948 306.022 480.964L306.017 510.472C305.887 543.622 303.278 538.193 272.75 537.98C258.15 537.849 243.548 537.842 228.948 537.959C233.954 524.627 240.762 511.45 246.054 498.145C250.086 488.009 252.047 482.6 263.761 481.169Z"/><path fill="white" d="M542.273 277.932C558.021 284.375 575.223 290.049 591.303 296.325C585.946 306.377 576.542 320.098 570.236 329.871C567.951 327.427 561.907 323.044 561.135 320.606C558.872 313.456 557.918 302.603 557.313 295.213C525.335 308.278 519.316 334.143 518.977 366.007C511.874 361.625 500.755 352.356 493.731 346.852C492.515 345.861 491.244 344.721 490.048 343.69C478.626 347.528 467.154 351.212 455.634 354.743C446.117 347.652 436.962 339.21 428.037 331.322C440.888 319.918 454.504 308.748 467.682 297.681C475.183 291.382 483.188 284.139 490.789 278.174C493.708 286.306 497.646 298.102 501.36 305.772C514.754 297.173 528.281 286.849 542.273 277.932Z"/><path fill="white" d="M550.296 306.339C551.354 307.626 551.218 312.724 551.559 314.553C556.288 339.905 576.677 355.998 599.675 364.733C601.863 365.564 618.251 375.689 620.826 377.59C623.814 386.507 605.023 398.767 598.705 402.556C597.918 403.012 596.929 403.515 595.968 403.396C577.418 401.104 558.589 396.859 540.049 394.868C523.614 363.423 523.585 332.132 550.296 306.339Z"/><path fill="white" d="M663.484 680.559C699.844 689.425 736.192 699.659 772.56 708.648C789.086 712.733 804.476 717.235 821.312 720.682C825.491 721.242 823.185 722.452 819.527 721.698C813.969 721.312 805.674 721.51 799.956 721.521L759.652 721.802L632.378 721.542C644.242 708.724 654.91 695.836 663.484 680.559Z"/><path fill="#F58A91" d="M821.312 720.682C825.491 721.242 823.185 722.452 819.527 721.698C820.5 721.445 821.009 721.617 821.312 720.682Z"/><path fill="white" d="M695.949 626.718C709.536 631.425 727.822 635.927 741.969 639.954L822.481 663.274C837.304 667.559 853.916 671.84 868.372 676.574C862.758 676.114 856.776 675.927 851.124 675.645C835.438 675.133 819.616 673.886 803.945 672.857L735.77 668.196C716.945 666.779 698.471 665.116 679.565 664.493C683.498 658.335 688.114 652.577 691.986 646.342C696.324 639.354 696.142 634.53 695.949 626.718Z"/><path fill="white" d="M718.888 574.81C730.933 577.791 743.873 582.098 755.73 585.912L804.675 601.551L860.435 618.944C868.817 621.614 879.914 624.833 887.828 628.015C881.494 627.15 874.771 626.548 868.38 625.886C864.125 625.804 854.813 624.495 850.211 623.979C839.598 622.784 828.975 621.694 818.341 620.709L699.138 610.346C705.029 599.881 712.841 584.389 718.888 574.81Z"/><path fill="white" d="M680.421 311.517C683.975 315.705 693.564 326.496 696.046 330.365C699.012 334.991 703.382 353.84 704.824 359.947C685.347 359.423 666.055 359.457 646.5 358.827C640.344 362.37 634.744 368.667 630.144 374.055C627.551 372.215 625.096 370.892 622.328 369.341C611.622 363.688 601.125 357.66 590.434 352.083C601.138 346.123 617.82 339.38 629.413 334.298L680.421 311.517Z"/><path fill="white" d="M724.83 356.124C729.616 355.979 743.465 362.462 749.888 364.452C745.529 384.619 739.496 404.635 734.896 425.004C722.139 422.607 708.305 420.895 695.355 418.84L664.635 414.141L662.551 403.351C665.404 402.609 676.268 399.982 678.054 398.538C693.24 386.257 705.895 370.369 720.669 357.544C721.377 356.929 723.843 356.354 724.83 356.124Z"/><path fill="white" d="M614.018 266.159C632.071 277.058 647.28 290.687 661.057 306.561C645.137 313.329 629.203 319.619 613.279 326.502C606.032 329.714 597.72 333.847 590.13 335.908C586.897 336.786 579.164 336.078 575.387 335.95C581.447 326.691 588.464 318.066 594.743 308.938C604.298 295.047 609.205 281.946 614.018 266.159Z"/><path fill="white" d="M762.941 532.073C772.818 535.996 785.949 539.877 796.302 543.514C826.277 553.966 856.327 564.203 886.449 574.224L884.487 575.189C865.651 572.819 842.82 571.25 823.682 569.589C794.393 567.168 765.126 564.497 735.883 561.576C743.345 552.693 754.743 540.31 762.941 532.073Z"/><path fill="white" d="M323.914 415.658C343.15 413.147 362.833 427.813 367.912 446.283C347.508 446.835 324.995 446.51 304.539 446.489C290.02 446.457 275.501 446.307 260.983 446.039C270.06 431.553 283.24 425.635 300.293 426.781C306.885 420.362 314.981 417.186 323.914 415.658Z"/><path fill="white" d="M356.881 339.458C360.602 339.675 366.532 340.57 370.215 341.242C392.631 345.336 416.8 346.401 439.004 350.676L438.994 362.632C426.993 368.856 422.904 366.249 409.472 364.657C390.373 362.993 371.089 360.391 351.99 358.524C342.173 357.564 332.446 356.157 322.579 355.876C333.851 350.072 345.29 344.597 356.881 339.458Z"/><path fill="white" d="M489.041 354.023L489.839 354.016C492.645 356.05 509.927 380.321 513.694 385.207C511.272 387.221 508.83 388.885 506.255 390.69C494.538 388.82 477.954 387.861 465.62 386.589C456.407 385.818 447.205 384.932 438.014 383.93C437.613 379.835 437.251 375.737 436.927 371.636C451.857 365.823 473.608 359.033 489.041 354.023Z"/><path fill="white" d="M648.924 366.855C663.178 367.998 677.04 369.94 691.63 370.946C686.738 377.06 677.591 388.609 670.723 391.146C666.177 392.826 659.802 394.719 654.973 396.435C654.149 398.122 653.381 400.189 652.672 401.952C650.908 406.175 648.804 408.98 643.616 409.098C636.625 409.258 628.408 409.161 621.838 406.642C620.509 406.133 617.453 403.571 616.214 402.58C624.751 392.545 639.592 375.616 648.924 366.855Z"/><path fill="#FCD2DA" d="M886.449 574.224C887.002 574.343 888.497 574.518 888.704 575.213C888.307 575.944 885.109 575.284 884.487 575.189L886.449 574.224Z"/></svg>