<?xml version="1.0" encoding="UTF-8"?>
<svg id="Layer_1" xmlns="http://www.w3.org/2000/svg" xmlns:xlink="http://www.w3.org/1999/xlink" version="1.1" viewBox="0 0 1170 780">
  <!-- Generator: Adobe Illustrator 29.6.1, SVG Export Plug-In . SVG Version: 2.1.1 Build 9)  -->
  <defs>
    <style>
      .st0 {
        fill: none;
      }

      .st1 {
        fill: #fff;
      }

      .st2 {
        fill: url(#New_Pattern);
      }
    </style>
    <pattern id="New_Pattern" data-name="New Pattern" x="0" y="0" width="195" height="195" patternUnits="userSpaceOnUse" viewBox="0 0 195 195">
      <g>
        <rect class="st0" width="195" height="195"/>
        <polygon class="st1" points="0 195 0 0 195 0 195 195 0 195"/>
        <polygon points="97.5 0 48.75 48.75 0 0 97.5 0"/>
        <polygon points="97.5 97.5 48.75 48.75 0 97.5 97.5 97.5"/>
        <polygon points="97.5 97.5 146.25 146.25 195 97.5 97.5 97.5"/>
        <polygon points="97.5 195 146.25 146.25 195 195 97.5 195"/>
        <path d="M146.25,48.75h0c0,26.92-21.83,48.75-48.75,48.75h0V0h0c26.92,0,48.75,21.83,48.75,48.75Z"/>
        <path d="M146.25,48.75h0c0,26.92,21.83,48.75,48.75,48.75h0V0h0c-26.92,0-48.75,21.83-48.75,48.75Z"/>
        <path d="M48.75,146.25h0c0,26.92,21.83,48.75,48.75,48.75h0v-97.5h0c-26.92,0-48.75,21.83-48.75,48.75Z"/>
        <path d="M48.75,146.25h0c0,26.92-21.83,48.75-48.75,48.75H0v-97.5h0c26.92,0,48.75,21.83,48.75,48.75Z"/>
      </g>
    </pattern>
  </defs>
  <rect class="st2" width="1170" height="780"/>
</svg>