<?xml version="1.0" encoding="UTF-8"?>
<svg id="Layer_2" data-name="Layer 2" xmlns="http://www.w3.org/2000/svg" viewBox="0 0 357.47 163.74">
  <defs>
    <style>
      .cls-1 {
        fill: #231f20;
      }

      .cls-2 {
        fill: #be1e2d;
      }
    </style>
  </defs>
  <g id="Layer_2-2" data-name="Layer 2">
    <g>
      <g>
        <path class="cls-1" d="M275.09,113.58h-2.14v-1.43h5.82v1.43h-2.14v5.6h-1.54v-5.6Z"/>
        <path class="cls-1" d="M280.77,112.15h1.67l1.85,2.97,1.85-2.97h1.67v7.03h-1.53v-4.59l-1.98,3h-.04l-1.96-2.97v4.56h-1.52v-7.03Z"/>
      </g>
      <g>
        <polygon class="cls-1" points="135.61 137.86 4.3 137.86 4.3 4.3 126.33 4.3 126.33 0 0 0 0 142.15 135.61 142.15 135.61 137.86"/>
        <polygon class="cls-1" points="231.14 0 231.14 4.3 353.17 4.3 353.17 137.86 221.86 137.86 221.86 142.15 357.47 142.15 357.47 0 231.14 0"/>
      </g>
      <g>
        <path class="cls-1" d="M25.55,86.89v-2.58s2.08-.42,2.08-.42c1.75-.33,2.67-1.42,2.67-3.25.25-13.9.25-27.64,0-41.38,0-1.83-.92-2.91-2.67-3.25l-2.08-.42v-2.58h25.89c17.57,0,29.23,10.24,29.23,26.14,0,16.49-11.82,27.73-29.31,27.73h-25.81ZM64.1,61.08c0-15.24-6.49-25.39-14.57-25.39-.67,0-2.08.08-3.58.33-.17,15.74-.17,31.64,0,47.71,2,.33,3.83.5,5.33.5,7.49,0,12.82-8.74,12.82-23.15Z"/>
        <path class="cls-1" d="M91.42,60c0-14.07,9.07-28.06,27.89-28.06,19.32,0,27.89,13.24,27.89,27.89,0,14.15-9.07,28.14-27.97,28.14-19.32,0-27.81-13.24-27.81-27.98ZM130.88,61.83c.08-17.82-6.49-27.23-12.99-27.23-8.66,0-10.16,13.57-10.24,23.48,0,17.82,6.58,27.14,12.99,27.14,8.66,0,10.24-13.49,10.24-23.4Z"/>
        <path class="cls-1" d="M188.26,60.17h23.81v2.58s-1.25.33-1.25.33c-1.75.42-2.16,1.41-2.16,3.41-.09,5.5-.17,11.66,0,17.4-5.66,2.58-14.65,4.08-21.98,4.08-17.57,0-28.72-10.57-28.72-27.89,0-15.57,11.07-28.06,28.81-28.06,7.66,0,15.99,1.25,21.73,3.25-.5,5.66-1.08,11.32-1.91,17.15h-2.58s-7.25-10.07-7.25-10.07c-4.66-6.33-7.57-7.91-10.41-7.91-8.58,0-12.16,11.74-12.16,23.81,0,16.49,7.08,27.31,13.99,27.31,2.5,0,4.66-1.83,5.91-4.91.08-4.66,0-9.49-.08-13.9-.08-2.08-.75-3.16-3.08-3.58l-2.67-.42v-2.58Z"/>
        <path class="cls-1" d="M253.38,60.17h23.81v2.58s-1.25.33-1.25.33c-1.75.42-2.16,1.41-2.16,3.41-.09,5.5-.17,11.66,0,17.4-5.66,2.58-14.65,4.08-21.98,4.08-17.57,0-28.72-10.57-28.72-27.89,0-15.57,11.07-28.06,28.81-28.06,7.66,0,15.99,1.25,21.73,3.25-.5,5.66-1.08,11.32-1.91,17.15h-2.58s-7.25-10.07-7.25-10.07c-4.66-6.33-7.57-7.91-10.41-7.91-8.58,0-12.16,11.74-12.16,23.81,0,16.49,7.08,27.31,13.99,27.31,2.5,0,4.66-1.83,5.91-4.91.08-4.66,0-9.49-.08-13.9-.08-2.08-.75-3.16-3.08-3.58l-2.67-.42v-2.58Z"/>
        <path class="cls-1" d="M315.92,33.02h17.57v2.58c-2.83,2.91-5.58,5.74-8.16,8.74-.91,1-1.75,2.33-2.33,3.75l-6.74,14.4c-.08,5.66-.08,12.07.08,17.82.08,2.08.92,3.33,2.75,3.58l2.16.42v2.58h-25.23v-2.58s2-.33,2-.33c1.83-.25,2.67-1.58,2.67-3.66.17-5.58.17-11.99,0-16.99-4.41-8.49-8.83-16.57-13.41-24.81-.83-1.5-1.83-2.25-3.41-2.58l-1.58-.33v-2.58h24.89v2.58s-1.5.42-1.5.42c-1.67.42-2.25,1.58-1.33,3.41l10.74,19.98,5.33-11.91c.67-1.67.67-3.08-.33-4.91-1.33-2.41-2.66-4.75-4.16-6.99v-2.58Z"/>
      </g>
      <g>
        <path class="cls-1" d="M91.91,97.23h8.56c6.9,0,11.66,4.73,11.66,10.91v.06c0,6.18-4.76,10.97-11.66,10.97h-8.56s0-21.94,0-21.94ZM96.73,101.59v13.23s3.73,0,3.73,0c3.95,0,6.61-2.66,6.61-6.55v-.06c0-3.89-2.66-6.61-6.61-6.61h-3.73Z"/>
        <path class="cls-1" d="M128.34,97.23h16.55v4.29h-11.76s0,4.45,0,4.45h10.34v4.29h-10.34s0,4.61,0,4.61h11.91v4.29h-16.71s0-21.94,0-21.94Z"/>
        <path class="cls-1" d="M166.37,101.68h-6.68v-4.45h18.18v4.45h-6.68s0,17.49,0,17.49h-4.83s0-17.49,0-17.49Z"/>
        <path class="cls-1" d="M198.19,97.08h4.45s9.41,22.1,9.41,22.1h-5.05s-2.01-4.92-2.01-4.92h-9.28s-2.01,4.92-2.01,4.92h-4.92s9.41-22.1,9.41-22.1ZM203.27,109.99l-2.91-7.12-2.91,7.12h5.83Z"/>
        <path class="cls-1" d="M227.57,97.23h4.83s0,21.94,0,21.94h-4.83s0-21.94,0-21.94Z"/>
        <path class="cls-1" d="M249.79,97.23h4.83s0,17.56,0,17.56h10.94v4.39h-15.77s0-21.94,0-21.94Z"/>
      </g>
      <g>
        <path class="cls-1" d="M142.29,4.45h-6.68V0h18.18v4.45h-6.68s0,17.49,0,17.49h-4.83s0-17.49,0-17.49Z"/>
        <path class="cls-1" d="M169.41,0h4.83v8.68s8.9,0,8.9,0V0h4.83s0,21.94,0,21.94h-4.83v-8.81s-8.9,0-8.9,0v8.81h-4.83s0-21.94,0-21.94Z"/>
        <path class="cls-1" d="M205.15,0h16.55v4.29h-11.76s0,4.45,0,4.45h10.34v4.29h-10.34s0,4.61,0,4.61h11.91v4.29h-16.71s0-21.94,0-21.94Z"/>
      </g>
      <path class="cls-2" d="M207.01,147.08c-1.57,5.52-5.96,9.77-11.46,10.98-2.8.61-5.35.29-7.51-.41-.06-.02-.13-.04-.19-.06-.23-.08-.45-.15-.67-.23-1.93-.72-3.49-1.71-4.56-2.53-.88-.67-1.45-1.23-1.62-1.4l-2.24-2.23-2.77-2.75-.08-.08-.22-.24-6.67-6.67c-1.79-1.79-1.79-4.7,0-6.49.87-.87,2.02-1.34,3.25-1.34s2.38.48,3.25,1.35l3.25,3.24,3.24-3.25c1.74-1.74,4.76-1.73,6.49,0,1.79,1.79,1.79,4.7,0,6.49l-5.96,5.96,2.26,2.25c.07.07.67.68,1.67,1.35l5.81-5.77c3.87-3.87,3.87-10.18,0-14.05-1.88-1.88-4.37-2.91-7.03-2.91-2.41,0-4.69.85-6.49,2.41-1.8-1.56-4.08-2.41-6.49-2.41h0c-2.65,0-5.15,1.03-7.03,2.91-3.87,3.88-3.87,10.18,0,14.05l7.01,7.01h0s2.58,2.57,2.58,2.57c-2.32,1.76-7.08,4.53-12.91,3.25-5.5-1.21-9.9-5.46-11.46-10.98h-5.5c1.7,8.11,7.9,14.47,15.82,16.2,1.45.32,2.85.46,4.18.46,6.46,0,11.41-3.26,13.78-5.19,2.37,1.93,7.32,5.19,13.78,5.19,1.33,0,2.72-.14,4.17-.46,7.91-1.73,14.12-8.09,15.82-16.2h-5.5Z"/>
    </g>
  </g>
</svg>