<?xml version="1.0" encoding="UTF-8" standalone="no"?>
<!DOCTYPE svg PUBLIC "-//W3C//DTD SVG 1.1//EN" "http://www.w3.org/Graphics/SVG/1.1/DTD/svg11.dtd">
<svg width="100%" height="100%" viewBox="0 0 282 268" version="1.1" xmlns="http://www.w3.org/2000/svg" xmlns:xlink="http://www.w3.org/1999/xlink" xml:space="preserve" xmlns:serif="http://www.serif.com/" style="fill-rule:evenodd;clip-rule:evenodd;stroke-linejoin:round;stroke-miterlimit:2;">
    <g transform="matrix(1,0,0,1,-19217.263149,-6172.231525)">
        <g transform="matrix(1.050682,0,0,1.050682,18289.498233,5905.530238)">
            <path d="M1128.94,414.966C1120.86,459.994 1084.36,494.43 1039.26,502.039C980.285,511.985 896.656,513.442 885.096,445.436C866.986,338.909 971.383,222.261 1024.65,261.676C1065.43,291.853 1141.14,346.991 1128.94,414.966Z" style="fill-rule:nonzero;"/>
            <path d="M1070.78,418.809C1069.41,422.547 1066.67,425.53 1063.07,427.211C1063.06,427.214 1063.05,427.219 1063.04,427.223C1055.57,430.691 1046.68,427.433 1043.209,419.966C1041.75,416.813 1041.5,413.338 1042.35,410.016L1044.1,405.762C1045.62,403.333 1047.79,401.381 1050.44,400.144C1050.45,400.14 1050.46,400.136 1050.47,400.132C1054.09,398.454 1058.14,398.284 1061.89,399.656C1065.63,401.026 1068.62,403.777 1070.3,407.392C1071.98,411.012 1072.15,415.064 1070.78,418.809ZM1015.39,398.644C1004.03,399.02 993.734,392.474 993.718,392.482L956.319,361.708C946.184,353.367 941.678,336.034 939.981,327.256L1041.01,401.416L1040.089,403.659C1039.459,404.707 1038.92,405.82 1038.49,406.993C1038.37,407.329 1038.28,407.671 1038.18,408.011C1033.959,404.52 1025.069,398.321 1015.39,398.644ZM996.666,427.326C993.72,425.958 990.48,425.3 987.184,425.52L989.741,395.034L991.055,396.115C991.314,396.282 994.875,398.567 1000.19,400.492L996.666,427.326ZM1002.05,438.58C1003.73,442.199 1003.9,446.252 1002.52,449.997C1001.16,453.735 998.419,456.718 994.815,458.398L994.789,458.411C987.321,461.879 978.425,458.621 974.958,451.15C973.277,447.531 973.11,443.478 974.481,439.733C975.848,435.995 978.586,433.013 982.19,431.331L982.216,431.319C989.684,427.851 998.581,431.109 1002.05,438.58ZM997.58,301.557C1010.6,318.133 1013.84,358.338 1014.64,376.468L992.652,360.325L997.58,301.557ZM1074.39,405.494C1069.88,395.77 1058.29,391.53 1048.569,396.041C1048.56,396.046 1048.55,396.051 1048.54,396.056C1047.12,396.714 1045.829,397.542 1044.64,398.487L1019.3,379.886C1018.71,361.092 1015.42,310.245 997.217,294.645L993.873,291.778L988.387,357.195L934.045,317.306L934.625,322.426C934.765,323.653 938.208,352.639 953.453,365.193L985.505,391.551L982.58,426.445C981.823,426.688 981.058,426.885 980.318,427.228L980.284,427.244C970.584,431.767 966.359,443.336 970.867,453.048C975.38,462.772 986.962,467.013 996.687,462.502L996.721,462.486C1006.42,457.962 1010.65,446.394 1006.14,436.682C1004.88,433.97 1003.04,431.739 1000.87,429.951L1004.56,401.846C1007.9,402.708 1011.64,403.282 1015.54,403.153C1025.88,402.808 1035.819,411.839 1037.329,413.277C1037.27,416.206 1037.85,419.131 1039.12,421.865C1043.63,431.589 1055.21,435.825 1064.94,431.314C1064.95,431.308 1064.96,431.304 1064.97,431.298C1074.67,426.775 1078.9,415.206 1074.39,405.494Z" style="fill:white;fill-rule:nonzero;"/>
            <path d="M1122.14,332.257C1108.89,332.257 1098.11,343.037 1098.11,356.287C1098.11,369.538 1108.89,380.32 1122.14,380.32C1135.39,380.32 1146.17,369.538 1146.17,356.287C1146.17,343.037 1135.39,332.257 1122.14,332.257ZM1122.14,385.19C1106.2,385.19 1093.24,372.225 1093.24,356.287C1093.24,340.352 1106.2,327.387 1122.14,327.387C1138.08,327.387 1151.04,340.352 1151.04,356.287C1151.04,372.225 1138.08,385.19 1122.14,385.19Z" style="fill:rgb(233,37,7);fill-rule:nonzero;"/>
            <path d="M928.492,492.663C928.492,501.138 921.622,508.009 913.146,508.009C904.671,508.009 897.8,501.138 897.8,492.663C897.8,484.188 904.671,477.317 913.146,477.317C921.622,477.317 928.492,484.188 928.492,492.663Z" style="fill:rgb(233,37,7);fill-rule:nonzero;"/>
            <path d="M939.275,265.405C939.275,270.225 935.367,274.132 930.547,274.132C925.727,274.132 921.82,270.225 921.82,265.405C921.82,260.585 925.727,256.677 930.547,256.677C935.367,256.677 939.275,260.585 939.275,265.405Z" style="fill:rgb(233,37,7);fill-rule:nonzero;"/>
        </g>
    </g>
</svg>
